<?xml version="1.0" encoding="utf-8"?>
<!-- Generator: Adobe Illustrator 23.0.3, SVG Export Plug-In . SVG Version: 6.00 Build 0)  -->
<svg version="1.1" id="Layer_1" xmlns="http://www.w3.org/2000/svg" xmlns:xlink="http://www.w3.org/1999/xlink" x="0px" y="0px"
	 viewBox="0 0 1000 1000" style="enable-background:new 0 0 1000 1000;" xml:space="preserve">
<style type="text/css">
	.st0{fill:#FFFFFF;}
	.st1{fill:#141B23;}
	.st2{fill:#B05328;}
	.st3{fill:#AF4B78;}
	.st4{fill:#F191B9;}
	.st5{fill:#3F4A5C;}
	.st6{fill:#08090B;}
	.st7{fill:#303948;}
	.st8{fill:#D2E9F7;}
	.st9{fill:#FEFEFE;}
	.st10{fill:#3E495C;}
	.st11{fill:#313B47;}
	.st12{fill:#FDC541;}
	.st13{fill:#DEF1FB;}
	.st14{fill:#FAAE2D;}
	.st15{fill:#191E26;}
	.st16{fill:#852026;}
	.st17{fill:#2A89C8;}
	.st18{fill:#FFC641;}
	.st19{fill:#90335F;}
	.st20{fill:#F8A625;}
	.st21{fill:#FDD676;}
</style>
<g>
	<g>
		<path class="st0" d="M468.1,21.4c-7.2,4.2-12.2,10.7-13.5,18.8c-1.7,11.3-2.8,22.7-2.8,34.1c0,7.4,2.2,14.9,3.5,22.7
			c-1.1-0.2-2-0.4-2.8-0.6c-46.5-10.7-90.4,12.5-107.8,57c-0.7,2-2.6,3.9-4.4,5.2c-12,8.9-24.5,17-36,26.4
			c-50.7,42.1-88.8,94.3-120.5,151.5c-1.5,2.8-3.7,5.2-6.1,7.2c-10.7,9-22.1,17.2-32.5,26.6c-44.8,40.8-78.6,90.2-107.8,142.8
			c-16.8,30.3-28.8,62.7-34,97.2c-0.6,0-1.1,0-1.5,0 M366,95.6c1.8-1.3,3.1-2,4.4-3c12.2-8.5,25.1-15.1,39.9-18.3
			c7.4-1.5,14.8-3,22.1-4.4c3.1-0.6,4.1-1.8,3-5.2c-2-6.3-3.7-12.7-5.4-19.2c-1.1-4.4-1.1-11.1-3.9-12.5c-3.1-1.7-8.7,1.7-13.3,2.2
			c-22.7,3.3-35.1,19-44.7,37.6C364.7,79.7,363.6,87.1,366,95.6z"/>
		<path class="st1" d="M571.2,94.8c43.4-8.7,86,15.1,102.2,56.5c0.7,1.8,2,4.1,3.7,5.2c46.3,30.1,82.5,70.1,113.7,115.1
			c5.4,7.8,5.2,7.8,13.7,3.9c68.6-30.6,126-75.5,169.4-137.5c3.5-5,6.6-4.8,10.9-1.7c8.7,6.5,10.7,16.2,12.7,26
			c0.7,3.7,0.7,7.6,1.1,11.4c0,2.2,0,4.4,0,6.6c0.2,2.2,0.6,4.2,0.7,6.5c0,5,0,10,0,15.1c-0.2,1.7-0.6,3.1-0.7,4.8
			c0,2.2,0,4.2,0,6.5c-2.4,37.5-13.5,72.9-25.3,108.1c-17.7,53.5-48.3,98.7-87.5,138.8c-2.4,2.4-3,4.2-2,7.8
			c11.3,37.1,18.6,74.9,22.5,113.5c6.5,66.2,2.4,131.4-23.1,193.9c-14.8,36.2-36.9,67-66.4,92.4c-0.7,0.7-1.5,1.5-2.2,2.2
			c-1.8,1.5-3.9,2.8-5.7,4.2c-4.2,3-8.5,6.1-12.7,9c-1.5,1.1-3,2.2-4.2,3.3c-1.5,0.7-3.1,1.7-4.6,2.4c-19.4,9.4-38.2,19.9-58.1,27.5
			c-19.2,7.4-39.5,11.6-59.2,17.3c-6.3,1.3-12.4,2.4-18.6,3.7c-5,0.9-10,1.7-14.9,2.6c-1.1,0-2-0.2-3.1,0
			c-24.9,2.4-49.8,5.7-74.7,7.2c-42.1,2.6-84.3,1.7-126.4-1.8c-18.5-1.5-36.9-3.9-55.4-5.7c-4.6-1.1-9.2-2.2-13.8-3.1
			c-5-0.7-10-1.5-14.9-2.2c-1.7-0.6-3.3-1.1-5-1.5c-34.9-7.9-69-18.1-100.9-34.7c-7.4-3.9-14.6-7.8-21.8-11.6
			c-1.1-0.7-2.4-1.7-3.5-2.4c-5-3.3-10-6.6-15.1-10c-1.3-1.3-2.6-2.6-4.1-3.9c-17.7-14-33.4-29.9-46.5-48.2
			c-34.5-48.3-48.3-103.3-50.6-161.6c-0.7-21.4-0.2-42.6-0.2-63.8c0,0-1.5,0.7-3,1.5c-25.6,12.9-49.6,28.2-72.5,45.6
			c-10,7.6-14.2,6.5-19.4-5.2c-0.9-2.2-1.3-4.8-2-7.2c-0.2-5.2-0.6-10.3-0.7-15.7c0.2-1.7,0.4-3.3,0.7-5c5.2-34.5,17-66.8,34-97.2
			c29.2-52.6,62.9-101.9,107.8-142.8c10.3-9.4,21.8-17.7,32.5-26.6c2.4-2,4.6-4.4,6.1-7.2c31.7-57.2,69.8-109.4,120.5-151.5
			c11.4-9.4,24-17.5,36-26.4c1.8-1.3,3.7-3.1,4.4-5.2c17.5-44.7,61.3-67.9,107.8-57c0.9,0.2,1.7,0.4,2.8,0.6
			c-1.3-7.8-3.5-15.1-3.5-22.7c0-11.4,0.9-22.9,2.8-34.1c1.3-8.1,6.1-14.6,13.5-18.8c1.8,0,3.5,0,5.4,0c4.1,5.4,9.2,10.3,12.2,16.2
			c3.5,6.6,5.4,14.2,7.4,21.6c2,7.2,3.1,14.6,4.8,22.7c1.1-1.5,2-2.8,3-3.9c8.1-9.6,16.1-19.6,24.5-28.8c4.2-4.6,10.3-8.9,16.8-5
			c6.8,4.1,4.8,11.3,3.3,17.3c-1.3,5-3.5,9.8-5.2,14.6c5.5-2,11.1-4.2,16.8-5.9c3.1-0.9,6.6-0.9,10.1-0.7c5.2,0.4,7.2,3.7,3.9,7.8
			c-5.2,6.1-11.1,11.6-17,17.3c-3,2.8-6.3,5.4-9.4,7.9c-2.2,1.7-4.6,3.5-6.8,5.2c0.2,0.4,0.4,0.6,0.6,0.9c2.2-1.5,4.6-3,6.8-4.4
			 M656.9,234.9c0.4-0.6,0.9-1.3,1.3-1.8c17.3-24.2,20.1-50.6,10.7-78.1c-12-35.6-51.1-60.7-85.8-55.5c-2.4,0.4-4.6,0.6-7,0.9l0,0
			c-0.6,0-1.1-0.2-1.7,0c-27.1,4.6-47.1,19.6-60.5,43.4c-0.6,0.9-0.7,2.6-0.4,3.7c1.3,3.5,2.8,7,4.2,10.5
			c4.1,14.8,4.6,29.7,2.4,44.8c-1.8,5.5-3.5,11.1-5.4,16.6c-1.8-0.2-3.9-0.2-5.7-0.4c0.6-1.7,1.3-3.3,1.8-5
			c16.4-46.3-9-97.4-55-110.2c-0.4-0.2-0.7-0.6-1.1-0.7c-51.3-16.2-106.7,22.3-109.1,76c-1.5,34.7,13.1,61.1,42.4,79.5
			c-2.4,0.9-5,1.8-7.4,2.6c-16.2-11.6-28.6-26.2-35.8-45.6c-17,12.9-32.3,26.9-45.9,42.6c-22.9,26.4-43,54.6-60.2,85.3
			c-30.4,54.1-52.8,111.3-67.9,171.2c-8.1,32.3-13.8,65-15.9,98.2c-3,46.1-0.9,91.9,12.7,136.7c16.1,52.2,46.3,93.9,91.9,123.8
			c25.5,16.8,53.7,27.7,82.9,36c40.6,11.6,81.9,17,124,18.8c55,2.4,109.8,1.3,164-9.2c18.6-3.7,36.7-9.8,55-14.6
			c25.1-7.2,47.8-19,69-34c36.5-25.6,61.8-60.2,77.5-101.5c15.3-40,21.4-82.1,21.2-124.9c0-19-1.1-38-2.6-57
			c-3.9-45.2-14.2-89.3-28.2-132.5c-15.3-47.6-36.7-92.4-63.1-135.1c-20.5-33.2-43.7-64.4-72-91.5c-4.2-4.1-9-7.4-14-11.3
			c-0.7,2.4-1.3,3.7-1.7,5.2c-8.1,15.7-19,28.8-33.6,38.6c-2.2-0.9-4.4-1.7-6.5-2.6C641,251.7,650.6,245,656.9,234.9L656.9,234.9z
			 M474.9,104.8c5.4,5.4,11.6,4.8,18.6,2.6c-1.8-11.8-3.1-23.6-5.4-35.2c-2.4-13.5-4.8-27.3-12.4-39.1c-1.3-2.2-4.2-5-6.1-4.8
			c-2.2,0.2-4.1,3.5-6.3,5.4c-1.5,3.1-3.5,6.1-4.2,9.4c-3.3,13.3-2.4,26.6,0.4,39.7C461.4,92.1,462,103,474.9,104.8z M165.1,371.1
			c-6.1,5.2-12.5,10.1-18.5,15.7C116,415.6,89.8,448,68.8,484.6c-23.4,40.8-42.3,83.6-53,129.5c-1.5,6.5-4.2,13.3-0.6,20.1
			c3.1-0.7,7-0.6,9.6-2.4c23.8-17.3,48.9-32.7,75.3-45.9c1.7-0.7,3.3-3.1,3.5-5c1.5-8.5,2.4-17.2,3.7-25.6
			c6.5-39.5,17-78.1,30.4-115.9c2.6-7,4.6-14.2,6.8-21.4c4.2-9.2,8.5-18.3,12.5-27.5C159.9,384,162.5,377.5,165.1,371.1
			c0.2-0.2,0.2-0.4,0.4-0.6C165.3,370.9,165.1,371.1,165.1,371.1z M392.6,931.1c0.6,0.2,1.1,0.6,1.7,0.7c10.5,1.3,20.9,2.6,31.4,3.5
			c9.2,0.9,18.6,1.5,27.9,2.2c-6.1-1.5-12.4-1.7-18.6-2.4c-13.8-1.5-27.7-3.3-41.3-5c-29.5-4.8-58.7-11.4-86.5-22.3
			c-36.9-14.4-70.3-34-97.4-63.7s-44.3-64.4-54.1-103c-8.5-33.2-12.4-67.2-10-101.5c1.5-20.1,2.2-40.2,4.6-60.2
			c4.6-37.6,13.7-74.4,25.5-110.3c16.6-50.9,38.2-99.5,66.2-145.2c16.8-27.5,35.6-53.5,57.9-76.8c12.5-13.1,26.6-24.5,39.9-36.9
			c1.1-1.1,1.8-3.1,1.8-4.8c-0.4-7-1.3-14-2-21c0-3.5,0-6.8,0-10.5c-1.1,0.2-1.5,0.2-1.8,0.4c-1.1,0.6-2,1.1-3,1.8
			c-31.6,21.6-58.5,48.3-82.7,77.9c-34.5,42.4-61.4,89.5-83.6,139.5c-18.6,41.7-33.8,84.9-42.6,129.7c-5.5,27.7-9.4,55.9-12.5,84
			c-1.8,16.1-0.9,32.5-0.2,48.7c0.6,15.1,1.5,30.3,3.7,45.2c4.4,29.7,12.9,58.3,26.8,85.1c12.5,24.2,28.6,45.8,48.7,64
			c6.8,6.1,14.4,11.4,21.8,17c10,6.5,19.6,13.7,30.1,19.2c30.8,17,63.8,28,98.2,35.4C358.7,925.6,375.8,928.2,392.6,931.1z
			 M875.3,436.8c0.7,3.1,1.5,6.3,2.2,9.4c0.9,3.7,2.4,3.5,4.6,0.9c5.9-6.5,12-12.9,17.9-19.6c25.3-28.8,45.2-61.1,59.4-96.7
			c21.4-53.7,30.3-109.8,27.3-167.6c-0.4-6.1-3.3-12.2-5.2-18.1c-2.4,1.7-5.5,3-7.2,5.2c-14.9,20.5-31.9,39.3-50.6,56.5
			c-8.9,8.1-18.1,16.1-27.5,23.4c-27.3,21.8-57.4,39.3-88.9,53.7c-4.8,2.2-5.4,3.9-2.4,8.5c12.7,21.4,26,42.6,37.1,64.8
			c9.8,19.4,17,40,25.5,60.2C870.2,424,872.8,430.5,875.3,436.8z M587.7,935.6c3.1-0.4,6.5-0.4,9.6-0.9c24.7-3.9,49.5-6.8,74-11.8
			c43.4-8.7,84-24.5,120.3-50c30.4-21.4,54.3-48.7,71.4-81.7c22.7-43.7,32.3-90.8,34.3-139.5c1.5-36.4-0.7-72.7-6.8-108.7
			c-7.4-44.8-19.7-88.6-36.5-130.8c-14.2-35.8-30.8-70.5-51.3-103.2c-29.3-47.1-62.7-90.6-106.5-125.3c-5.4-4.2-10.9-8.1-15.7-11.6
			c-1.3,11.6-2.6,22.9-3.5,34c-0.2,2,0.7,4.8,2,6.3c11.1,11.1,22.9,21.6,33.6,33.2c26,27.7,46.7,59.2,65.3,92.1
			c21.2,36.9,38.2,75.8,51.5,116.3c12.2,36.5,21.4,73.6,26.4,112c4.1,31.9,8.1,63.7,5,96c-2.2,23.4-4.6,46.9-9,69.9
			c-6.6,34-19.6,65.7-39.7,94.3c-15.5,22.1-34.3,40.8-56.8,55.7c-24.2,16.1-50.4,27.5-78.1,35.8c-29.7,8.9-60,14.4-90.8,17.3
			c-10.5,0.7-21.2,1.7-31.7,2.4c5.2,0.2,10.3,0.4,15.3,0.2C576,936.8,581.8,936.1,587.7,935.6z M499.6,92.1
			c0.6,5.5,0.7,9.4,1.3,13.1c0.2,0.9,1.1,2.4,1.8,2.6c3.9,0.6,7.9,1.1,10.7-3.1c7.2-11.1,14.8-21.6,21.2-33
			c3.1-5.4,4.6-11.8,5.7-17.9c0.9-5-2.8-7-7.2-4.4c-2.2,1.3-4.6,2.8-6.3,4.8c-8.3,10.1-16.4,20.3-24.4,30.6
			C500.7,87.3,500.2,90.6,499.6,92.1z M521.4,107.4c7.4,2,41.5-25.1,42.3-33.6C540.2,73.1,532.5,92.3,521.4,107.4z M496.1,120.9
			c4.6,6.1,8.9,11.6,13.1,17.3c4.2-5.7,8.3-11.4,12.7-17.3C513.1,120.9,505,120.9,496.1,120.9z"/>
		<path class="st2" d="M376.7,939.8c-40.2,14.2-80.6,27.5-122.3,36.5c-1.3,0.2-2.8,0.6-4.1,0.7H250c-2,0.4-4.1,0.6-6.1,0.9
			c-2.4,0-4.8,0-7,0c-4.2-3.5-8.5-7.2-12.9-10.5c-1.5-1.1-3.3-2-5.2-2.2c-11.4-1.3-18.8-8.1-24.2-17.3c-4.1-6.8-7.9-13.8-11.6-20.9
			c-12.7-24.5-8.5-41.5,14.6-56.7c1.3,1.3,2.6,2.6,4.1,3.9c-1.1,1.1-2.4,2-3.5,3.1c-4.1,4.6-7.9,9-11.8,13.7
			c-5,7.4-4.8,20.9,0.7,27.1c1.1-3.7,2-7.4,3-10.9c5.9-11.1,14.8-18.8,26.8-23.1c1.1,0.7,2.4,1.7,3.5,2.4c-1.5,0.9-2.8,2-4.2,3
			c-9.4,5.5-18.6,11.4-21.4,23.1c-5.2,14.2,5.4,35.2,18.1,38c1.3-9,2.8-18.1,4.1-27.1c6.6-10.5,14.4-19,28-19.4
			c-11.4,6.6-22,14-22.9,29c0,3.5-0.4,7,0,10.5c2.2,16.2,16.1,26,31.7,22.5c12.9-2.8,25.8-5.9,38.6-9c21-5.2,41.9-10.5,62.7-16.1
			c2.8-0.7,5.2-2.8,7.9-4.1C367.3,937.6,372.1,938.7,376.7,939.8z"/>
		<path class="st2" d="M773.9,973.4c-24.5,4.4-121.1-27.9-137.5-33.2c5-0.9,10-1.7,14.9-2.6c1.1,0.6,2.2,1.5,3.3,1.8
			c35.6,9,71.2,18.5,107,26.8c13.5,3.1,26.6-7.2,29-20.9c5.5-20.9-6.1-32.7-22.7-42.1c3.3,0.2,6.5,0.4,9,1.7
			c14.4,6.6,21.8,18.3,22.7,34c-0.2,3.9-0.4,7.8-0.6,12.4c10-3.7,15.5-10.3,18.6-19.4c3.7-10,3.9-20.3-3.3-28.2
			c-6.3-6.8-14.8-11.6-22.3-17.2c1.5-1.1,3-2.2,4.2-3.3c5.5,3.5,11.3,6.5,16.2,10.3c8.1,6.1,11.6,14.9,13.7,25.1
			c10.1-15.3,0.2-40-17.2-44.7c1.8-1.5,3.9-2.8,5.7-4.2c13.1,7.8,23.4,17.7,22.1,34.3c-0.6,7.2-3.1,14.4-5.9,21
			c-3.7,8.3-8.5,16.1-13.1,24c-5.2,8.9-12.7,14.6-23.1,16.1c-2,0.4-4.2,1.3-5.9,2.6"/>
		<path class="st3" d="M2.9,615.4"/>
		<path class="st3" d="M3.6,610.2"/>
		<path class="st4" d="M998.8,213.3c0-2.2,0-4.2,0-6.5"/>
		<path class="st5" d="M998.8,206.9"/>
		<path class="st6" d="M366,95.6c-2.4-8.5-1.3-15.9,2.2-22.7c9.6-18.6,22.1-34.3,44.7-37.6c4.6-0.7,10.1-3.9,13.3-2.2
			c2.8,1.5,2.6,8.1,3.9,12.5c1.7,6.5,3.3,12.9,5.4,19.2c1.1,3.3,0.2,4.6-3,5.2c-7.4,1.5-14.8,3-22.1,4.4c-14.8,3-27.7,9.8-39.9,18.3
			C369.2,93.4,367.9,94.3,366,95.6z"/>
		<path class="st6" d="M644.7,90.6c-20.9-12.5-43.5-9.6-65.9-7.6c0.9-12.9,1.8-24.9,2.8-36.9c0-0.7,1.7-2.2,2.2-2
			c22.9,4.1,45.8,8.3,57.2,32.3c1.8,3.9,3.1,8.1,4.6,12.2C645.4,89.3,645,89.9,644.7,90.6z"/>
		<path class="st0" d="M671.6,222.2c0.6-1.3,0.9-2.8,1.7-5.2c5,4.1,9.8,7.4,14,11.3c28.2,27.1,51.5,58.3,72,91.5
			c26.2,42.6,47.6,87.5,63.1,135.1c14,43.2,24.4,87.1,28.2,132.5c1.7,19,2.6,38,2.6,57c0,42.8-6.1,84.7-21.2,124.9
			c-15.7,41.3-41,75.8-77.5,101.5c-21.2,14.9-43.9,26.8-69,34c-2,0.2-4.1,0-6.1,0.4c-32.1,7.9-64.8,13.1-97.8,14.2
			c-25.1,0.7-50.2,0.6-75.1-0.9c-26.8-1.5-53.5-4.1-80.1-8.1c-32.8-5-65.3-11.8-96.7-23.3c-36.7-13.5-69.6-32.8-96-62.4
			c-16.6-18.5-28.8-39.5-38-62.2c-11.8-28.8-17.7-59.2-19.4-90.1c-1.7-31.7-1.1-63.7,4.4-95c3.9-22.3,8.7-44.7,14-66.8
			c10-40.4,24.7-79.2,42.8-116.8s39.9-73.1,66.1-105.7c0.6-0.9,1.1-1.7,1.8-2.6c0.4-0.6,0.6-1.1,0.9-1.7l0,0
			c0.2-0.4,0.4-0.7,0.7-1.1l0,0c1.5-0.9,3-1.7,4.2-2.8c4.6-4.2,9.2-8.9,13.8-13.1c0.9,2.2,2,4.2,2.8,6.5c5,14.8,14.4,26.4,26,36.2
			c7.2,6.1,12.7,13.3,17.3,21.4c9.6,16.6,18.6,33.6,30.4,48.5c11.8,15.3,25.8,29.2,40,42.4c19.2,17.9,42.6,25.5,68.6,19.6
			c21.6-4.8,41.5-14,57.4-30.4c2-2.2,4.6-3.7,8.1-6.5c-3.1,9-5.9,16.4-8.1,23.3c6.1,0.9,11.3,1.7,16.8,2.4c2.8-5.9-1.3-8.3-6.3-10
			c1.5-4.6,3.3-8.9,4.1-13.3c0.4-2.8-0.2-6.8-1.8-8.1c-2-1.5-6.3-1.5-8.9-0.6c-3.5,1.3-6.5,4.1-9.6,6.1c-3.3-6.3-8.7-10.3-15.3-12.5
			c-0.9-7.8-1.8-15.3-2.8-23.1c15.7-9,31-19.2,47.4-27.1c16.8-8.3,34.7-14.4,52-21.6c19.2-7.9,25.5-22.9,17.7-42.1
			c11.1-10.7,19.2-22.7,18.8-39.9c-7.6,11.4-14.8,22-21.8,32.5c-4.2-2.4-8.3-4.8-12.5-7.2c5-5.4,10.3-10.3,14.8-16.2
			C665.3,239.7,671.1,232.1,671.6,222.2z"/>
		<path class="st5" d="M586.7,934.6c30.8-3,61.3-8.3,90.8-17.3c27.7-8.3,53.9-19.7,78.1-35.8c22.5-14.9,41.3-33.6,56.8-55.7
			c20.1-28.6,33-60.3,39.7-94.3c4.4-23.1,6.8-46.5,9-69.9c3.1-32.1-0.9-64-5-96c-5-38.2-14.4-75.5-26.4-112
			c-13.3-40.4-30.3-79.3-51.5-116.3c-18.8-32.8-39.5-64.4-65.3-92.1c-10.7-11.4-22.5-22-33.6-33.2c-1.5-1.5-2.2-4.2-2-6.3
			c0.9-11.3,2.2-22.3,3.5-34c4.8,3.5,10.3,7.4,15.7,11.6c43.7,34.7,77.1,78.2,106.5,125.3c20.5,32.8,37.1,67.4,51.3,103.2
			c16.8,42.3,29,85.8,36.5,130.8c5.9,36,8.3,72.3,6.8,108.7c-2,48.7-11.6,95.8-34.3,139.5c-17.2,33-41,60.3-71.4,81.7
			c-36.4,25.5-77.1,41.3-120.3,50c-24.5,5-49.3,7.9-74,11.8c-3.1,0.6-6.5,0.6-9.6,0.9C587.3,935.2,587.1,935,586.7,934.6z"/>
		<path class="st7" d="M875.3,436.8c-2.6-6.5-5.2-12.7-7.9-19.2c-8.3-20.1-15.7-40.8-25.5-60.2c-11.1-22.1-24.4-43.4-37.1-64.8
			c-2.8-4.8-2.4-6.3,2.4-8.5c31.7-14.6,61.6-32.1,88.9-53.7c9.4-7.6,18.6-15.3,27.5-23.4c18.6-17.2,35.6-35.8,50.6-56.5
			c1.7-2.2,4.8-3.5,7.2-5.2c0.4,5.5,0.9,11.1,0.7,16.8c-0.4,10.3-0.6,20.5-1.8,30.8c-1.8,16.6-3.7,33.2-7,49.6
			c-7.4,36.4-24.5,69.2-39.5,102.8c-10.7,24.4-24.5,46.9-40.4,68.3C888.3,421.6,881.6,429,875.3,436.8z"/>
		<path class="st8" d="M303.3,287.9c-26.2,32.7-48.2,68.1-66.1,105.7s-32.8,76.4-42.8,116.8c-5.4,22.1-10.1,44.5-14,66.8
			c-5.4,31.4-6.1,63.3-4.4,95c1.7,31,7.4,61.3,19.4,90.1c9.4,22.7,21.6,43.7,38,62.2c26.4,29.7,59.2,48.9,96,62.4
			c31.4,11.6,63.8,18.5,96.7,23.3c26.6,3.9,53.3,6.5,80.1,8.1c24.9,1.5,50.2,1.7,75.1,0.9c33-0.9,65.7-6.3,97.8-14.2
			c2-0.6,4.1-0.4,6.1-0.4c-18.3,5-36.4,11.1-55,14.6c-54.3,10.5-109.1,11.8-164,9.2c-41.9-1.8-83.4-7.4-124-18.8
			c-29.2-8.3-57.4-19.4-82.9-36c-45.6-30.1-75.8-71.6-91.9-123.8c-13.7-44.8-15.7-90.4-12.7-136.7c2.2-33.2,7.8-65.9,15.9-98.2
			c15.1-60,37.5-117.2,67.9-171.2c17.2-30.4,37.3-58.9,60.2-85.3c13.7-15.7,29-29.5,45.9-42.6c7.2,19.4,19.7,34,35.8,45.6
			c-2.4,0.9-5,1.7-7.4,2.6c-5.5-6.3-11.4-12.2-16.4-18.6c-5-6.3-5-6.6-10.5-0.9c-0.7,0.7-1.5,1.8-2.4,2.6
			c-7.9,3.1-16.1,5.5-23.6,9.6c-9.4,5-15.7,12.9-17.7,23.6C302.4,282.7,303.1,285.3,303.3,287.9z"/>
		<path class="st9" d="M520.1,202.6c2.2-15.1,1.7-30.1-2.4-44.8c0.9-1.5,2-2.8,2.6-4.4c7.8-22.1,22.3-38.2,43.9-47.8
			c3.9-1.7,7.9-3.5,11.8-5.4l0,0c2.4-0.4,4.6-0.6,7-0.9c34.5-5,73.6,19.9,85.8,55.5c9.4,27.7,6.5,54.1-10.7,78.1
			c-0.4,0.6-0.9,1.3-1.3,1.8l0,0c-3.1,2.4-6.1,5-9.4,6.8c-8.5,4.6-17.3,9-26,13.5c-0.9-0.2-1.7-0.4-2.6-0.6
			c-29.3-9.6-58.7-19.2-88-29C527.3,218.1,523.6,210.4,520.1,202.6z M588.6,186.9c0-13.1-9.8-23.4-22.9-23.6
			c-13.1-0.2-23.8,10.1-23.8,23.3c0,12.5,10.5,23.3,22.9,23.4C577.9,210,588.4,199.7,588.6,186.9z"/>
		<path class="st0" d="M455.9,103.7c45.9,12.7,71.4,63.8,55,110.2c-0.6,1.7-1.3,3.3-1.8,5c-1.3,0.6-2.6,1.3-4.1,1.7
			c-18.5,5.7-36.9,10.9-55.2,17c-16.4,5.4-32.7,11.4-49.1,17.3c-5-3.9-10.1-7.4-14.9-11.4c-28.2-24.5-36.7-67.4-17.7-100.2
			c15.1-26,38-39.1,67.9-40.2C442.6,102.8,449.3,103.3,455.9,103.7z M420.8,188.4c0,12.7,10.9,23.3,23.6,23.3
			c12.4-0.2,23.1-10.9,23.1-23.3c0-12.9-10.7-23.6-23.6-23.4C431.2,165,420.8,175.5,420.8,188.4z"/>
		<path class="st10" d="M339.5,184.3c0.7,7,1.5,14,2,21c0.2,1.5-0.7,3.7-1.8,4.8c-13.3,12.4-27.3,23.8-39.9,36.9
			c-22.3,23.3-41,49.3-57.9,76.8c-28,45.8-49.6,94.3-66.2,145.2c-11.8,36-20.9,72.7-25.5,110.3c-2.4,19.9-3.1,40-4.6,60.2
			c-2.4,34.3,1.5,68.3,10,101.5c9.8,38.6,26.9,73.3,54.1,103s60.5,49.3,97.4,63.7c27.9,10.9,57,17.5,86.5,22.3
			c-0.4,0.4-0.6,0.6-0.9,0.9c-17-3-34-5.5-50.7-9c-34.3-7.4-67.4-18.6-98.2-35.4c-10.3-5.7-20.1-12.7-30.1-19.2
			c-3-4.4-5.7-9-8.9-13.3c-17.7-24.4-33-50-45.2-77.7c-22-50.4-32.3-103.3-33.6-158.1c-0.4-12,0.4-24.2,1.8-36.2
			c2.6-21.2,4.4-42.8,9.8-63.3c7.9-30.3,18.3-60,28.6-89.5c9.4-27.1,19.4-54.1,33.6-79.2c23.4-41.3,50.2-79.9,84.1-113.3
			c5.9-5.7,11.3-12,17.2-17.9c7.4-7.4,14.6-14.9,22.1-22.1C328.4,192.1,334.1,188.4,339.5,184.3z"/>
		<path class="st11" d="M339.5,184.3c-5.4,4.1-11.1,7.8-16.1,12.2c-7.8,7-14.9,14.6-22.1,22.1c-5.7,5.9-11.3,12.2-17.2,17.9
			c-34,33.4-60.7,72.2-84.1,113.3c-14.2,25.1-24.2,52-33.6,79.2c-10.3,29.5-20.7,59.2-28.6,89.5c-5.4,20.5-7.2,42.1-9.8,63.3
			c-1.5,12-2,24-1.8,36.2c1.3,54.8,11.6,107.6,33.6,158.1c12,27.7,27.3,53.5,45.2,77.7c3.1,4.2,5.9,8.9,8.9,13.3
			c-7.2-5.7-14.9-10.9-21.8-17c-20.3-18.3-36.2-39.9-48.7-64c-13.8-26.8-22.3-55.4-26.8-85.1c-2.2-14.9-3.1-30.1-3.7-45.2
			c-0.6-16.2-1.5-32.7,0.2-48.7c3.1-28,7-56.3,12.5-84c8.9-44.8,24-88,42.6-129.7c22.1-49.8,49.1-97.1,83.6-139.5
			c24-29.5,50.9-56.3,82.7-77.9c0.9-0.7,2-1.3,3-1.8c0.4-0.2,0.7-0.2,1.8-0.4C339.5,177.5,339.5,181,339.5,184.3z"/>
		<path class="st7" d="M144.8,418.1c-2.2,7.2-4.2,14.4-6.8,21.4c-13.5,37.8-24,76.2-30.4,115.9c-1.5,8.5-2.2,17.2-3.7,25.6
			c-0.4,1.8-1.8,4.2-3.5,5C73.9,599.2,48.8,614.5,25,632c-2.4,1.8-6.3,1.7-9.6,2.4c1.8-6.1,3.3-12.2,5.4-18.1
			c9.4-29,19.2-58.1,35.1-84.1c12.4-20.3,26.4-39.5,40.6-58.7c8.5-11.4,18.6-22,28-32.7C131.1,433.1,138,425.7,144.8,418.1z"/>
		<path class="st2" d="M400.7,254.8c16.4-5.7,32.7-12,49.1-17.3c18.3-5.9,36.9-11.3,55.2-17c1.5-0.4,2.8-1.1,4.1-1.7
			c1.8,0.2,3.9,0.2,5.7,0.4c5.4,2.2,10.7,4.4,16.1,6.6c29.3,9.6,58.7,19.2,88,29c0.7,0.2,1.7,0.4,2.6,0.6c3.3,0.9,6.6,2,10,3
			c2.2,0.9,4.4,1.7,6.6,2.6c2.4,0.7,4.6,1.7,7,2.4c4.2,2.4,8.3,4.8,12.5,7.2c0.9,2.4,1.8,4.8,2.8,7.4c7.8,19.2,1.5,34.3-17.7,42.1
			c-17.3,7.2-35.2,13.3-52,21.6c-16.2,7.9-31.6,17.9-47.4,27.1c-2.4,1.3-4.8,2.4-7.2,3.7c-13.3,4.1-26.8,5.7-40.6,3
			c-9.4-4.4-18.8-8.7-28-13.5c-12.5-6.5-25.1-13.5-37.6-20.3c-19-7.8-37.8-15.3-56.8-23.1l0,0c-0.4-0.4-0.9-0.6-1.3-0.9
			c-4.1-3.9-8.1-7.8-12-11.8c-0.4-0.6-0.6-1.1-0.9-1.7l0,0c-0.4-1.7-0.6-3.3-1.1-5c-3.5-12.9,3.7-29,15.3-34.9
			c2.4-0.9,5-1.7,7.4-2.6c2.4-0.9,5-1.8,7.4-2.6C392.4,257.6,396.7,256.1,400.7,254.8z M498.2,235.6L498.2,235.6
			c-9,2.2-18.5,3.9-27.3,6.8c-19.4,6.3-38.8,13.1-58.1,19.6c-10.3,3.5-20.7,6.6-31,10.1c-9.6,3.1-12.9,10.7-13.8,20.1
			c-0.9,9.2,5,14,12.2,17c9.4,3.9,19.2,6.6,28.8,9.8c10.1,5,20.5,10,30.4,15.1c9,4.8,18.3,9.6,26.9,14.9c11.8,7.4,23.8,14.4,38,16.2
			c15.5,2,29.2-4.1,42.3-11.4c12.4-6.8,24.4-14.2,36.9-20.7c15.3-8.1,31-15.7,48-19.9c4.8-1.3,9.6-3.9,13.8-6.6
			c10-6.6,10.3-21.8,0.9-29.7c-3-1.7-5.5-4.1-8.7-5.2c-22.1-7.9-44.3-15.9-66.8-23.1C552,242.8,533,238,514,232.9
			c-2-0.6-4.2-0.2-6.5-0.2c-2.4,0.9-4.8,1.8-7,2.6C499.8,235.1,498.9,235.5,498.2,235.6z"/>
		<path class="st12" d="M799.7,938.9c-0.7-15.9-8.3-27.3-22.7-34c-2.6-1.3-5.7-1.5-9-1.7c16.6,9.4,28.2,21,22.7,42.1
			c-1.7,0.2-3.5,0.2-5.2,0.6c-9,1.5-17.9,3.9-26.9,4.4c-18.1,1.1-36.4,0.6-53.9-4.4c-11.8-3.3-23.3-7.9-34.9-12
			c19.7-5.7,40.2-10,59.2-17.3c19.9-7.8,38.8-18.3,58.1-27.5c1.7-0.7,3.1-1.7,4.6-2.4c7.6,5.7,16.1,10.3,22.3,17.2
			c7.2,7.9,7,18.3,3.3,28.2c-3.1,1.1-6.3,1.8-9.4,3.1C805.4,936.1,802.6,937.6,799.7,938.9z"/>
		<path class="st12" d="M194.4,912.3c2.8-11.6,12-17.5,21.4-23.1c1.5-0.9,2.8-1.8,4.2-3c7.2,3.9,14.4,7.9,21.8,11.6
			c31.9,16.6,66.1,26.8,100.9,34.7c1.7,0.4,3.3,0.9,5,1.5c-1.7,0.7-3.1,1.7-4.8,1.8c-5.7,0.9-11.4,1.3-17,2.4
			c-20.1,3.9-40,8.1-60.5,7.4c-15.3-0.6-30.8-0.2-42.4-13.1c-0.2-0.2-0.9-0.2-1.3-0.4c0.9-14.9,11.4-22.1,22.9-29
			c-13.5,0.4-21.4,8.9-28,19.4c-2.2-0.4-4.8-0.4-6.8-1.3C204.6,919,199.6,915.6,194.4,912.3z"/>
		<path class="st10" d="M875.3,436.8c6.3-7.8,12.9-15.1,18.8-23.3c15.7-21.4,29.5-44.1,40.4-68.3c14.8-33.6,32.1-66.4,39.5-102.8
			c3.3-16.2,5-33,7-49.6c1.1-10.1,1.5-20.5,1.8-30.8c0.2-5.5-0.6-11.1-0.7-16.8c1.8,6.1,4.8,12,5.2,18.1
			c3,57.8-5.9,113.7-27.3,167.6c-14.2,35.6-34.1,67.7-59.4,96.7c-5.7,6.6-12,13.1-17.9,19.6c-2.2,2.4-3.9,2.6-4.6-0.9
			C876.8,443,876.1,439.9,875.3,436.8z"/>
		<path class="st10" d="M144.8,418.1c-6.8,7.6-13.7,14.9-20.3,22.5c-9.4,10.9-19.6,21.2-28,32.7c-14.2,19-28.2,38.4-40.6,58.7
			c-15.9,26.2-25.6,55.2-35.1,84.1c-1.8,5.9-3.5,12-5.4,18.1c-3.7-6.8-1.1-13.7,0.6-20.1c10.5-45.9,29.5-88.8,53-129.5
			c21-36.5,47.1-69,77.9-97.8c5.9-5.5,12.4-10.3,18.5-15.7l0.2,0.2c-2.6,6.5-5.2,12.9-7.9,19.4C153.3,399.9,149,409.1,144.8,418.1z"
			/>
		<path class="st13" d="M400.7,254.8c-4.2,1.3-8.5,2.8-12.7,4.1c-29.3-18.5-43.9-44.8-42.4-79.5c2.4-53.7,57.8-92.4,109.1-76.2
			c0.4,0.2,0.7,0.4,1.1,0.7c-6.6-0.2-13.3-0.9-19.7-0.7c-29.9,0.9-52.8,14.2-67.9,40.2c-19.2,33-10.5,75.7,17.7,100.2
			C390.6,247.4,395.7,251,400.7,254.8z"/>
		<path class="st14" d="M221.7,932.8c0.4,0.2,1.1,0,1.3,0.4c11.4,12.9,26.9,12.5,42.4,13.1c20.7,0.7,40.6-3.5,60.5-7.4
			c5.5-1.1,11.3-1.5,17-2.4c1.7-0.2,3.1-1.3,4.8-1.8c5,0.7,10,1.5,14.9,2.2c-2.6,1.5-5,3.3-7.9,4.1c-20.9,5.5-41.9,10.9-62.7,16.1
			c-12.9,3.1-25.6,6.3-38.6,9c-15.7,3.5-29.3-6.5-31.7-22.5C221.4,939.8,221.7,936.3,221.7,932.8z"/>
		<path class="st14" d="M670,933.9c11.6,4.1,23.1,8.7,34.9,12c17.5,5,35.8,5.5,53.9,4.4c9-0.6,17.9-3,26.9-4.4
			c1.7-0.4,3.5-0.4,5.2-0.6c-2.4,13.7-15.5,24-29,20.9c-35.8-8.5-71.4-17.7-107-26.8c-1.3-0.4-2.2-1.3-3.3-1.8
			C657.6,936.3,663.7,935,670,933.9z"/>
		<path class="st11" d="M463.5,33.6c2-1.8,3.9-5.2,6.3-5.4c1.8-0.2,4.8,2.6,6.1,4.8c7.6,12,10,25.6,12.4,39.1
			c2.2,11.6,3.5,23.4,5.4,35.2c-6.8,2.2-13.3,2.8-18.6-2.6c0.2-1.1,0.6-2.2,0.4-3.1c-1.3-10.7-2-21.6-3.9-32.1
			C469.4,57.4,466.2,45.6,463.5,33.6z"/>
		<path class="st11" d="M499.6,92.1c0.6-1.5,1.1-4.8,3-7.2c7.9-10.3,16.1-20.7,24.4-30.6c1.7-2,4.1-3.5,6.3-4.8
			c4.4-2.6,8.1-0.6,7.2,4.4c-1.1,6.1-2.8,12.5-5.7,17.9c-6.5,11.3-14.2,22-21.2,33c-2.8,4.2-6.8,3.7-10.7,3.1
			c-0.7-0.2-1.7-1.7-1.8-2.6C500.4,101.5,500.2,97.8,499.6,92.1z"/>
		<path class="st10" d="M463.5,33.6c2.6,12,5.7,23.8,7.9,35.8c1.8,10.5,2.8,21.4,3.9,32.1c0.2,1.1-0.2,2-0.4,3.1
			c-12.9-1.8-13.5-12.7-15.5-22c-2.8-13.1-3.7-26.6-0.4-39.7C460.1,39.7,462,36.7,463.5,33.6z"/>
		<path class="st12" d="M809.1,874.1c17.3,4.6,27.3,29.3,17.2,44.7c-2-10.1-5.5-19-13.7-25.1c-5.2-3.9-10.9-7-16.2-10.3
			C800.6,880.2,804.8,877.2,809.1,874.1z"/>
		<path class="st13" d="M576,100.2c-3.9,1.8-7.8,3.7-11.8,5.4c-21.6,9.4-36.2,25.5-43.9,47.8c-0.6,1.7-1.7,3-2.6,4.4
			c-1.5-3.5-3-7-4.2-10.5c-0.4-1.1-0.2-2.8,0.4-3.7c13.5-23.8,33.4-38.6,60.5-43.4C574.9,100,575.5,100.2,576,100.2z"/>
		<path class="st11" d="M521.4,107.4c11.1-15.1,18.8-34.3,42.3-33.6C563.1,82.3,528.8,109.4,521.4,107.4z"/>
		<path class="st12" d="M186.1,890.9c3.9-4.6,7.9-9.2,11.8-13.7c1.1-1.1,2.4-2,3.5-3.1c5,3.3,10,6.6,15.1,10
			c-12,4.2-20.9,11.8-26.8,23.1C183.7,902.7,185.6,896.8,186.1,890.9z"/>
		<path class="st10" d="M496.1,120.9c8.9,0,17,0,25.8,0c-4.4,5.9-8.5,11.6-12.7,17.3C505,132.5,500.9,127,496.1,120.9z"/>
		<path class="st8" d="M645,263.3c-2.4-0.7-4.6-1.7-7-2.4c14.6-10,25.6-23.1,33.6-38.6c-0.6,10-6.3,17.5-12,24.9
			C655.4,252.8,649.8,258,645,263.3z"/>
		<path class="st8" d="M631.4,258.2c-3.3-0.9-6.6-2-10-3c8.7-4.4,17.3-8.7,26-13.5c3.3-1.8,6.3-4.6,9.4-6.8
			C650.6,245,641,251.7,631.4,258.2z"/>
		<path class="st13" d="M530.8,225.7c-5.4-2.2-10.7-4.4-16.1-6.6c1.8-5.5,3.5-11.1,5.4-16.6C523.6,210.4,527.3,218.1,530.8,225.7z"
			/>
		<path class="st7" d="M392.6,931.1c0.4-0.4,0.6-0.6,0.9-0.9c13.8,1.7,27.7,3.5,41.3,5c6.3,0.7,12.5,0.9,18.6,2.4
			c-9.2-0.7-18.6-1.3-27.9-2.2c-10.5-1.1-21-2.4-31.4-3.5C393.7,931.7,393.2,931.3,392.6,931.1z"/>
		<path class="st7" d="M586.7,934.6c0.4,0.4,0.6,0.6,0.9,0.9c-5.7,0.6-11.4,1.3-17.3,1.7c-5,0.4-10.1,0-15.3-0.2
			C565.5,936.3,576.2,935.4,586.7,934.6z"/>
		<path class="st13" d="M583.2,99.3c-2.4,0.4-4.6,0.6-7,0.9C578.4,100,580.8,99.6,583.2,99.3z"/>
		<path class="st8" d="M656.9,234.9c0.4-0.6,0.9-1.3,1.3-1.8C657.8,233.6,657.2,234.3,656.9,234.9z"/>
		<path class="st10" d="M165.1,371.1c0.2-0.2,0.4-0.2,0.6-0.4c-0.2,0.2-0.2,0.4-0.4,0.6C165.3,371.3,165.1,371.1,165.1,371.1z"/>
		<path class="st4" d="M254.4,976.3"/>
		<path class="st14" d="M194.4,912.3c5.2,3.1,10.1,6.5,15.5,9.4c1.8,1.1,4.4,0.9,6.8,1.3c-1.3,9-2.8,18.1-4.1,27.1
			C200,947.6,189.4,926.5,194.4,912.3z"/>
		<path class="st14" d="M186.1,890.9c-0.7,5.9-2.4,11.8,3.7,16.2c-0.9,3.7-2,7.2-3,10.9C181.5,911.8,181.1,898.3,186.1,890.9z"/>
		<path class="st14" d="M799.7,938.9c3-1.3,5.7-2.8,8.7-3.9c3.1-1.1,6.3-2,9.4-3.1c-3.1,9-8.9,15.7-18.6,19.4
			C799.3,946.6,799.5,942.8,799.7,938.9z"/>
		<path class="st15" d="M359.9,305.6c4.1,3.9,8.1,7.8,12,11.8c0.4,0.4,0.9,0.6,1.3,0.9l0,0c0,0.7-0.2,1.5,0.2,2
			c5.5,10.5,11.1,21,16.6,31.6c1.1,2,2,4.2,3.3,6.3c14.9,22.3,34.1,40.8,53.3,59c4.4,4.1,10.5,6.3,15.9,9.4c1.3,0.7,2.4,1.7,3.7,2.4
			c8.3,5.9,17.9,7.6,27.7,7.2c18.8-0.6,35.8-7.2,51.5-16.8c4.4-2.6,7.8-7,11.4-10.7c1.5-1.5,3-3,4.4-4.4c3.1-2.2,6.1-5,9.6-6.3
			c2.8-0.9,6.8-0.9,8.9,0.6c1.8,1.3,2.4,5.5,1.8,8.1c-0.7,4.4-2.6,8.7-4.1,13.3c5,1.7,9,3.9,6.3,10c-5.5-0.7-10.7-1.5-16.8-2.4
			c2.4-6.6,5-14.2,8.1-23.3c-3.5,2.8-6.1,4.4-8.1,6.5c-15.7,16.6-35.6,25.6-57.4,30.4c-26,5.7-49.3-1.7-68.6-19.6
			c-14.2-13.3-28-27.1-40-42.4c-11.6-15.1-20.9-32.1-30.4-48.5c-4.8-8.1-10.1-15.3-17.3-21.4c-11.6-9.8-21-21.4-26-36.2
			c-0.7-2.2-1.8-4.2-2.8-6.5c-0.4-0.9-0.9-2-1.3-3.1c-7.9,5-13.1,10.9-16.6,18.8l0,0c-0.2,0.4-0.4,0.7-0.7,1.1l0,0
			c-0.4,0.6-0.6,1.1-0.9,1.7c-0.6,0.9-1.1,1.7-1.8,2.6c-0.2-2.6-0.9-5.4-0.6-7.8c2-10.7,8.3-18.6,17.7-23.6
			c7.4-3.9,15.7-6.5,23.6-9.6c1.3,0,2.6,0.2,4.1,0.2c-0.7,5-2.2,8.9-8.3,9c-2.2,0-4.6,1.1-6.6,2.2c-0.9,0.4-1.8,2-1.7,3
			c3.7,17.7,13.5,31.7,27.3,43c0,0,0.2-0.2,0.4-0.2l0,0C359.2,304.5,359.6,305,359.9,305.6z"/>
		<path class="st16" d="M466.2,428.8c-1.3-0.7-2.4-1.7-3.7-2.4c1.5-3.9,2.4-7.9,4.6-11.3c8.5-12.7,20.7-18.5,36.2-17.2
			c8.5,3.3,16.6,4.8,24.5-1.8c2.8-2.2,6.6-3,10-4.2c2.8,0,5.4,0,8.1-0.2c6.6,2.2,12,6.3,15.3,12.5c-1.5,1.5-3,3-4.4,4.4
			c-2.6-2.8-5-5.4-7.6-8.1l0,0c-1.5-0.9-2.8-2.2-4.2-2.6c-7.8-2-14.6,0.9-20.5,5.5c-0.9,0.7-1.3,3.3-0.7,4.6
			c1.1,3.5,2.6,6.8,4.1,10.3c-0.6,0.2-0.9,0.4-1.5,0.6c-1.1-1.3-2-2.4-3.1-3.7c-11.6-14.6-34.9-16.4-47.6-3
			C471.2,416.7,469.4,423.1,466.2,428.8z"/>
		<path class="st15" d="M660.4,277.7c-0.9-2.4-1.8-4.8-2.8-7.4c7-10.5,14-21,21.8-32.5C679.6,255,671.4,267,660.4,277.7z"/>
		<path class="st1" d="M546,391.6c-2.8,0-5.4,0-8.1,0.2c-0.6-6.5-1.3-13.1-1.8-19.6c2.4-1.3,4.8-2.4,7.2-3.7
			C544.1,376.1,545,383.8,546,391.6z"/>
		<path class="st8" d="M306.6,282.5c3.5-7.9,8.7-13.8,16.6-18.8c0.6,1.1,0.9,2,1.3,3.1c-4.6,4.4-9.2,8.9-13.8,13.1
			C309.6,281,308.1,281.6,306.6,282.5z"/>
		<path class="st8" d="M305,285.5c0.4-0.6,0.6-1.1,0.9-1.7C305.7,284.2,305.3,284.7,305,285.5z"/>
		<path class="st8" d="M306.1,283.6c0.2-0.4,0.4-0.7,0.7-1.1C306.4,282.9,306.2,283.2,306.1,283.6z"/>
		<path class="st9" d="M359,304.1c-0.2,0-0.4,0.2-0.4,0.2c-13.8-11.3-23.6-25.3-27.3-43c-0.2-0.9,0.7-2.4,1.7-3c2-0.9,4.4-2,6.6-2.2
			c6.1-0.2,7.4-4.1,8.3-9c-1.5,0-2.8-0.2-4.1-0.2c0.7-0.9,1.5-1.8,2.4-2.6c5.7-5.7,5.7-5.4,10.5,0.9c5.2,6.5,10.9,12.5,16.4,18.6
			c-11.8,5.9-18.8,22-15.3,34.9C358.5,300.6,358.7,302.3,359,304.1z"/>
		<path class="st17" d="M588.6,186.9c0,12.7-10.7,23.3-23.6,23.1c-12.5-0.2-23.1-10.9-22.9-23.4c0-13.1,10.7-23.6,23.8-23.3
			C578.6,163.3,588.6,173.6,588.6,186.9z M566.4,174.7c-3.9-5.5-8.5-7-12.7-3.9s-4.2,8.1,0.2,13.3c0,8.1,4.2,13.5,10.9,14
			c5.7,0.4,11.4-4.2,12.4-9.8C578.1,181.6,573.8,176.2,566.4,174.7z"/>
		<path class="st17" d="M420.8,188.4c0-12.9,10.3-23.6,23.1-23.6c13.1-0.2,23.8,10.5,23.6,23.4c0,12.5-10.7,23.3-23.1,23.3
			C431.7,211.8,421,201.1,420.8,188.4z M432.7,185.4c0,8.5,4.1,13.8,11.1,14.4c5.9,0.4,11.8-4.4,12.5-10.7
			c0.7-6.1-3.9-11.4-10.9-12.7c-3.3-5.7-8.3-7.4-12.5-4.4C428.6,175.1,428.6,180.3,432.7,185.4z"/>
		<path class="st18" d="M500.7,234.9c2.4-0.9,4.8-1.8,7-2.6c8.1,3.1,15.9,7,24.2,9.6c36.7,11.6,73.6,22.9,110.3,34.1
			c1.3,0.4,2.6,0.4,3.9,0.6c9.4,7.9,9.2,23.1-0.9,29.7c-4.2,2.8-9,5.4-13.8,6.6c-17,4.2-32.7,11.8-48,19.9
			c-12.5,6.6-24.5,13.8-36.9,20.7c-13.1,7.4-26.8,13.5-42.3,11.4c-14-1.8-26-8.7-38-16.2c-8.7-5.5-17.9-10.3-26.9-14.9
			c-10.1-5.2-20.3-10.1-30.4-15.1c-5-5-10-10-14.8-14.9c-11.3-11.6-8.9-24,5.7-30.8c0.6-0.2,1.1-0.6,1.7-0.7
			c22.3-8.7,44.7-17.3,67.2-25.8c9.8-3.7,19.9-7.2,29.7-10.7l0,0C498.9,235.5,499.8,235.1,500.7,234.9z M566.3,266.6
			c-6.3,0-10.3,3.7-9,8.3c3,11.3,18.8,22.1,30.3,20.9c5.4-0.6,8.1-5.2,6.1-10.1C590.1,276.6,576,266.8,566.3,266.6z"/>
		<path class="st19" d="M503.3,397.8c-15.3-1.3-27.5,4.4-36.2,17.2c-2.2,3.3-3.1,7.6-4.6,11.3c-5.4-3.1-11.4-5.2-15.9-9.4
			c-19.4-18.3-38.6-36.7-53.3-59c-1.3-2-2.2-4.1-3.3-6.3c2.8-1.1,5.5-2.8,8.5-3.5c10.5-2.6,20.9-4.8,31.4-7.2
			c12.5,6.8,24.9,13.7,37.6,20.3c9.2,4.8,18.6,9,28,13.5C498.2,382.5,500.7,390.3,503.3,397.8z"/>
		<path class="st20" d="M498.2,235.6c-10,3.5-19.9,7-29.7,10.7c-22.3,8.5-44.8,17.2-67.2,25.8c-0.6,0.2-1.1,0.6-1.7,0.7
			c-14.6,6.8-16.8,19-5.7,30.8c4.8,5,10,10,14.8,14.9c-9.6-3.1-19.4-5.9-28.8-9.8c-7.2-3-13.1-7.6-12.2-17
			c0.9-9.2,4.2-16.8,13.8-20.1c10.3-3.3,20.7-6.6,31-10.1c19.4-6.5,38.6-13.3,58.1-19.6C479.7,239.5,488.9,237.9,498.2,235.6z"/>
		<path class="st3" d="M503.3,397.8c-2.6-7.8-5.2-15.3-7.8-23.1c13.8,3,27.3,1.3,40.6-3c0.6,6.5,1.3,13.1,1.8,19.6
			c-3.3,1.5-7.4,2-10,4.2C519.9,402.6,511.8,401.2,503.3,397.8z"/>
		<path class="st3" d="M429.9,341.2c-10.5,2.4-21,4.6-31.4,7.2c-3,0.7-5.7,2.4-8.5,3.5c-5.5-10.5-11.1-21-16.6-31.6
			c-0.4-0.6-0.2-1.3-0.2-2C392.1,325.9,411.1,333.4,429.9,341.2z"/>
		<path class="st21" d="M646.2,276.4c-1.3-0.2-2.6-0.2-3.9-0.6c-36.7-11.3-73.6-22.5-110.3-34.1c-8.3-2.6-16.1-6.3-24.2-9.6
			c2.2,0,4.4-0.2,6.5,0.2c18.8,5.2,38,10,56.7,15.9c22.5,7.2,44.5,15.1,66.8,23.1C640.6,272.4,643.4,274.8,646.2,276.4z"/>
		<path class="st20" d="M500.7,234.9c-0.9,0.2-1.8,0.6-2.8,0.7C498.9,235.5,499.8,235.1,500.7,234.9z"/>
		<path class="st9" d="M359.9,305.6c-0.4-0.6-0.6-1.1-0.9-1.7C359.2,304.5,359.6,305,359.9,305.6z"/>
		<path class="st3" d="M373.2,318.1c-0.4-0.4-0.9-0.6-1.3-0.9C372.3,317.6,372.9,317.9,373.2,318.1z"/>
		<path class="st4" d="M466.2,428.8c3-5.5,5-12.2,9.2-16.6c12.9-13.5,36.2-11.6,47.6,3c0.9,1.3,2,2.4,3.1,3.7
			c0.6-0.2,0.9-0.4,1.5-0.6c-1.3-3.3-3-6.8-4.1-10.3c-0.4-1.5-0.2-3.9,0.7-4.6c6.1-4.6,12.7-7.6,20.5-5.5c1.5,0.4,3,1.7,4.2,2.6
			c-1.8-0.6-3.9-1.7-5.7-1.7c-0.9,0-1.8,2-2.6,3.1c2.2,1.3,4.4,2.4,6.6,3.7c0.6-1.7,1.3-3.3,1.8-5c2.6,2.8,5,5.4,7.6,8.1
			c-3.9,3.7-7.2,7.9-11.4,10.7c-15.9,9.6-32.8,16.2-51.5,16.8C484.1,436.4,474.5,434.7,466.2,428.8z"/>
		<path class="st6" d="M566.4,174.7c7.4,1.5,11.6,6.8,10.5,13.7c-0.7,5.5-6.6,10.1-12.4,9.8c-6.6-0.6-10.9-5.9-10.9-14
			C562.6,186.6,566.4,183.6,566.4,174.7z"/>
		<path class="st9" d="M566.4,174.7c0,8.9-3.9,11.8-12.5,9.4c-4.2-5.2-4.4-10.1-0.2-13.3C557.9,167.7,562.6,169,566.4,174.7z"/>
		<path class="st6" d="M445.4,176.6c6.8,1.3,11.4,6.6,10.9,12.7c-0.7,6.1-6.5,11.1-12.5,10.7c-6.8-0.6-11.1-5.9-11.1-14.4
			C441.3,188,445.4,185.1,445.4,176.6z"/>
		<path class="st9" d="M445.4,176.6c0,8.5-4.1,11.4-12.7,9c-4.1-5.2-4.1-10.3,0.2-13.3C437.1,169.2,442.1,170.9,445.4,176.6z"/>
		<path class="st21" d="M566.3,266.6c9.8,0.2,23.8,10,27.3,19c1.8,5-0.7,9.4-6.1,10.1c-11.4,1.3-27.3-9.6-30.3-20.9
			C555.9,270.3,560,266.6,566.3,266.6z"/>
		<path class="st9" d="M549.5,400.4c-0.6,1.7-1.3,3.3-1.8,5c-2.2-1.3-4.4-2.4-6.6-3.7c0.9-1.1,1.8-3.1,2.6-3.1
			C545.6,398.9,547.6,399.9,549.5,400.4L549.5,400.4z"/>
	</g>
</g>
<g>
</g>
<g>
</g>
<g>
</g>
<g>
</g>
<g>
</g>
<g>
</g>
<g>
</g>
<g>
</g>
<g>
</g>
<g>
</g>
<g>
</g>
<g>
</g>
<g>
</g>
<g>
</g>
<g>
</g>
</svg>
