<?xml version="1.0" standalone="no"?>
<!DOCTYPE svg PUBLIC "-//W3C//DTD SVG 20010904//EN"
 "http://www.w3.org/TR/2001/REC-SVG-20010904/DTD/svg10.dtd">
<svg version="1.0" xmlns="http://www.w3.org/2000/svg"
 width="700.000000pt" height="700.000000pt" viewBox="0 0 700.000000 700.000000"
 preserveAspectRatio="xMidYMid meet">
<metadata>
Created by potrace 1.11, written by Peter Selinger 2001-2013
</metadata>
<g transform="translate(0.000000,700.000000) scale(0.100000,-0.100000)"
fill="#000000" stroke="none">
<path d="M3242 6825 c-16 -13 -35 -39 -43 -57 -13 -32 -133 -190 -149 -196 -7
-3 -22 47 -48 158 -8 32 -12 35 -43 34 -155 -4 -278 -85 -365 -240 -36 -64
-54 -148 -38 -177 8 -14 17 -11 64 20 86 55 175 93 269 114 47 10 92 19 99 19
6 0 -20 -40 -58 -89 -58 -73 -77 -90 -105 -95 -59 -11 -169 -73 -235 -133 -66
-60 -150 -178 -170 -238 -9 -27 -36 -52 -133 -122 -274 -197 -490 -415 -704
-708 -70 -96 -190 -281 -252 -390 -66 -115 -58 -106 -181 -204 -221 -177 -454
-434 -642 -711 -320 -471 -491 -885 -483 -1167 2 -73 7 -99 26 -132 13 -23 33
-44 45 -47 24 -6 28 -4 203 119 130 90 380 237 404 237 1 0 2 -98 2 -218 1
-353 13 -486 66 -712 50 -212 166 -471 286 -639 67 -93 209 -246 288 -309 l40
-32 -35 -28 c-141 -110 -153 -219 -44 -418 84 -155 112 -185 203 -214 35 -12
73 -30 85 -41 49 -47 70 -56 121 -52 57 4 313 67 460 113 55 17 105 32 111 33
61 14 331 113 327 120 -3 5 3 7 13 4 11 -3 52 -9 93 -12 41 -4 82 -8 90 -10 9
-1 50 -6 91 -10 41 -4 89 -9 105 -11 201 -25 962 -25 1096 1 12 3 52 7 88 10
36 4 80 8 96 10 122 16 172 16 215 0 47 -17 183 -61 235 -75 17 -5 77 -22 135
-39 149 -44 308 -83 400 -96 112 -17 153 -12 243 29 17 8 50 20 73 25 78 20
112 59 207 231 38 70 66 171 61 224 -5 69 -30 112 -96 167 -33 27 -55 49 -51
49 7 0 99 89 183 177 51 54 165 221 213 311 86 165 178 422 204 572 2 14 6 32
8 40 2 8 7 38 11 65 3 28 7 52 9 55 2 3 6 41 10 85 3 44 8 96 11 115 6 40 6
398 0 450 -2 19 -7 76 -11 125 -4 50 -8 92 -10 95 -2 3 -6 32 -10 65 -3 33 -8
69 -10 80 -3 11 -7 36 -9 55 -13 89 -49 259 -81 375 -50 183 -52 164 16 236
216 231 394 497 502 749 79 186 186 536 217 708 32 182 43 409 26 553 -15 127
-65 218 -122 222 -24 2 -37 -10 -97 -88 -204 -266 -424 -473 -688 -647 -130
-86 -169 -109 -331 -190 -185 -93 -162 -97 -266 45 -216 294 -420 502 -666
679 -84 60 -92 69 -132 148 -91 178 -247 296 -444 336 -122 24 -211 15 -342
-37 -57 -23 -109 -46 -115 -51 -7 -6 -13 -8 -13 -5 0 4 16 17 37 31 20 14 74
62 120 107 98 97 105 122 35 127 -26 2 -69 -5 -105 -17 -33 -12 -63 -19 -65
-16 -3 3 0 15 5 28 41 83 43 147 7 176 -15 12 -33 21 -42 21 -32 0 -82 -44
-178 -157 -87 -103 -99 -115 -102 -93 -9 67 -56 236 -78 278 -34 66 -86 122
-111 122 -12 0 -35 -11 -51 -25z m1519 -1312 c13 -16 12 -17 -3 -4 -10 7 -18
15 -18 17 0 8 8 3 21 -13z m40 -40 c13 -16 12 -17 -3 -4 -17 13 -22 21 -14 21
2 0 10 -8 17 -17z m-118 -68 c-3 -9 -8 -14 -10 -11 -3 3 -2 9 2 15 9 16 15 13
8 -4z m238 -52 c13 -16 12 -17 -3 -4 -10 7 -18 15 -18 17 0 8 8 3 21 -13z m50
-50 c13 -16 12 -17 -3 -4 -10 7 -18 15 -18 17 0 8 8 3 21 -13z m40 -40 c13
-16 12 -17 -3 -4 -10 7 -18 15 -18 17 0 8 8 3 21 -13z m1269 -1137 c0 -2 -8
-10 -17 -17 -16 -13 -17 -12 -4 4 13 16 21 21 21 13z m-3149 -43 c13 -16 12
-17 -3 -4 -10 7 -18 15 -18 17 0 8 8 3 21 -13z m922 -8 c-3 -9 -8 -14 -10 -11
-3 3 -2 9 2 15 9 16 15 13 8 -4z m-2354 -3399 c-2 -1 -19 -8 -36 -14 -37 -12
-45 -6 -10 8 22 9 54 13 46 6z m-102 -49 c-15 -12 -39 -35 -53 -52 l-26 -30
22 32 c20 31 66 73 79 73 3 0 -7 -10 -22 -23z m943 -183 c0 -8 -19 -13 -24 -6
-3 5 1 9 9 9 8 0 15 -2 15 -3z m-885 -42 c-3 -3 -11 0 -18 7 -9 10 -8 11 6 5
10 -3 15 -9 12 -12z"/>
<path d="M4077 6683 c-3 -4 -8 -48 -12 -98 -3 -49 -8 -106 -11 -125 l-4 -35
162 0 c167 0 171 -1 292 -50 16 -7 17 -5 11 16 -31 100 -100 191 -175 229 -69
35 -253 79 -263 63z"/>
</g>
</svg>
