<svg id="Layer_1" data-name="Layer 1" xmlns="http://www.w3.org/2000/svg" viewBox="0 0 100 181.15"><defs><style>.cls-1{fill:#212529;}.cls-2{fill:#17161c;}.cls-29,.cls-3{fill:#fff;}.cls-4{fill:#20c997;}.cls-5{fill:#df209f;}.cls-6{fill:#14148d;}.cls-7{fill:#f7f7f7;}.cls-8{fill:#fdfdfc;}.cls-9{fill:#fafafa;}.cls-10{fill:#fcfcfc;}.cls-11{fill:#305b78;}.cls-12{fill:#df817a;}.cls-13{fill:#34648c;opacity:0.25;isolation:isolate;}.cls-14{fill:#495057;}.cls-15{fill:#76496c;}.cls-16{fill:#e2a38d;}.cls-17{fill:#646665;}.cls-18{fill:#735e75;}.cls-19{fill:#e5bbaa;}.cls-20{fill:#171819;}.cls-21{fill:#252725;}.cls-22{fill:#cbcbcb;}.cls-23{fill:#cacaca;}.cls-24{fill:#63ccac;}.cls-25{fill:#c83998;}.cls-26{fill:#e5e5e5;}.cls-27{fill:#111a86;}.cls-28{fill:#8c8d8c;}.cls-29{font-size:2.87px;font-family:HelveticaNeue, Helvetica Neue;}.cls-30{fill:none;}.cls-31{fill:#22d0ab;}</style></defs><title>AppUser</title><path class="cls-1" d="M46,121.82c-5.9-2.15-10.71-8.69-10.71-14.57V7.46C35.29,1.57,40.1-1.46,46,.69l43.35,15.8C95.23,18.65,100,25.18,100,31.06v99.8c0,5.88-4.8,8.92-10.71,6.76Z" transform="translate(0 0)"/><path class="cls-2" d="M45.31,118.69c-5.6-2-10.16-8.24-10.16-13.82V10.2c0-5.58,4.56-8.45,10.16-6.41l41.13,15c5.6,2,10.15,8.24,10.15,13.82v94.67c0,5.58-4.55,8.46-10.15,6.41Z" transform="translate(0 0)"/><path class="cls-3" d="M45.31,114.85c-3.47-1.27-6.3-5.11-6.3-8.57V11.61c0-3.46,2.83-5.25,6.3-4l41.13,15c3.47,1.27,6.3,5.11,6.3,8.57v94.67c0,3.46-2.83,5.25-6.31,4Z" transform="translate(0 0)"/><path class="cls-4" d="M86.79,56.81c.59.44.32,1.3-.11,1l-.1-.1,0,0-.1-.16c0-.85-.85-1.51-1.34-2.24l-.15-.18a5.06,5.06,0,0,0-1.83-1.92c-.62-.81-2-.8-2.74-1.23-.14.29-.54.33-.8-.23-.11-.51-2.16-1.6-2.55-2-.17-.25-.15.14-.44,0-.52-.27-.45-.68-.29-1.18-.22-.89-.43-1.87-.69-2.74a.85.85,0,0,0-.1-.49c-.54-2.3-1.17-4.68-1.74-7.1l-.05-.15A8.19,8.19,0,0,0,73.06,36l-.1.16c-.25.43-.52.95-.79,1.46v.13c-.82,1.6-2.1,3.27-2,4.4,0,.23-.08.39-.37.34-.59-.3-.15-.82-.74-1.47-1.28-1.69-2.72-5-2.76-3.26-.33,1.5-.68,3.08-1,4.74-.07,0,0,.06,0,.11-.11.5-.26,1.16-.35,1.78-.25,1-.5,2.25-.69,3.43-.18.4-.18,1-.35,1.53v.25c-.09,0-.1.16-.1.29-.19,1-.39,2-.64,3,.39.57.18,1.32-.45.77a1.18,1.18,0,0,1-.15-.57c.46-.46-.44-3-.52-4-.6-2.8-1-5.51-1.67-8.31a27.49,27.49,0,0,0-.68-3.44s.07-.13,0-.18c.07-.47-.19-.72-.5-1.09.24-.25-2.62-2-2.63-1.92-.32-.1-.58.11-.6.62a4.55,4.55,0,0,1-.2.64c0,.07-.06,0,0,.24-.74,1.87-1.24,4-2,6-.29,1.1-.8,1.81-.63,3.08-.19.37-.66.15-.76-.41-.06-.25.2-.12-.06-.59-.6-1-1-2.1-1.72-3.06,0-.11,0-.22-.09-.3-.27-.51-.62-1.2-1-1.76a.73.73,0,0,1-.59-.68,2,2,0,0,0-.25-1.44c-.84-2.46-1.78-5-2.65-7.54-.15-.07-.15.39-.19.62-.07.05-.08.31-.1.55A11.32,11.32,0,0,0,45.38,32a29.4,29.4,0,0,0-.54,3,18.88,18.88,0,0,0-.5,2.66c-.07,0,0,.07-.05.11a2.77,2.77,0,0,0-.15.79v.06a20.29,20.29,0,0,0-.45,2.4c-.36,1.6-.61,3.31-.95,5-.05.4.51,1-.19,1.12l-.09,0c-.36-.21-.52-1.17,0-1,.09,0,.06-.24.14-.46.15-1.17.5-2.4.65-3.67a22.44,22.44,0,0,0,.45-2.4,4.94,4.94,0,0,0,.2-.9c.13-1.2.5-2.34.64-3.64.4-1.84.75-4,1.14-6,.12-.35-.25-.57-.14-1.05l.1-.09.19-.06c.14,0,.22.17.4.28,0,.05,0,.11.05.15.06.46-.14.71.18,1.36.82,2.31,1.6,4.46,2.41,6.82l0,.15a6.39,6.39,0,0,0,.36.89.81.81,0,0,1,.43.47,4.18,4.18,0,0,0,1,2.33c0,.11,0,.22.1.29.6.88,1.64,3.65,2,3.26.54-1.79,1.09-3.4,1.63-5.23a24.63,24.63,0,0,0,.75-2.45c.07,0,0-.06,0-.11a3.4,3.4,0,0,0,.34-1.1c.08,0,0-.07,0-.11.22-.47.07-.94.15-1.55.2-.45.67-.14.8.5.8.52,1.59,1.13,2.46,1.65.12.15.14.09.32,0l.1,0c.91.35.15,1.57.64,2.69a17.26,17.26,0,0,0,.45,2.36c0,.07,0,.15.05.21l0,.09v.06c0,.07,0,.15,0,.21s0,.1.05.15c.54,3.67,1.44,7.71,2.22,11.54.16-1,.49-2,.61-3.2.06-.05.06-.11,0-.3a15,15,0,0,0,.5-2.31c.31-1.39.63-2.89.89-4.43.08,0,0-.07,0-.11.21-1.06.42-2.26.7-3.35.77-3.28-.08-1.48.31-2.87.68-.35.58.71.85,1.19.91,1.31,1.66,2.68,2.64,4,.4.23.47-.35.7-.69.55-1,1-2,1.61-3l0-.11a7.66,7.66,0,0,0,.9-1.86A.62.62,0,0,1,73,34.9l.1,0c.66.15.42.75.4,1.32.17.57.3,1.3.5,2,0,0,0,.11.05.15.44,2,1,4.3,1.59,6.46a1,1,0,0,0,.15.57,5,5,0,0,0,.2.92s0,.11,0,.14a6.4,6.4,0,0,0,.94,2.73c.06.39.37.37.67.66a18.24,18.24,0,0,0,2,1.36s.17.05.15-.14l.4.15c0,.15,0,.19.15.25.24.56,2,.69,2.52,1,.23.1.46-.51.8,0a.94.94,0,0,1,.13.63c.39.53.83,1.14,1.32,1.71a.23.23,0,0,0,.2.21c.3.5,1,1.72,1.5,1.7" transform="translate(0 0)"/><path class="cls-5" d="M42.46,50.45c-.44-.26-.5-1.08,0-1,.95-4,1.82-8.29,2.63-12.56l0,0a2.45,2.45,0,0,1,.35-.65c-.33,2-.88,4-1.25,6.14s-1,4.44-1.39,6.74c-.07,0,0,.06-.05.11-.19.34.47,1.4-.25,1.33Z" transform="translate(0 0)"/><path class="cls-6" d="M42.46,41l.09,0c.53-.5.78-1.71,1.35-2.36a4.94,4.94,0,0,1-.2.9c-.29.44-.56,1.12-.88,1.63.1.36.15.91-.27.93l-.09,0C42.07,41.74,42,41,42.46,41Z" transform="translate(0 0)"/><path class="cls-6" d="M87.14,55c.34,1.13-.76.83-.75.29,0-.35.18-.61-.11-1.08,0-.07,0-.14,0-.21-.39-1.36-.86-2.78-1.29-4.22l0-.15c-.47-1.5-1-3.24-1.5-4.74a18.52,18.52,0,0,0-1.68,3.58c-.07,0,0,.07,0,.12-.49.84-.87,2-1.34,2.94-.11-.06-.14-.1-.15-.25.3-.94.88-1.81,1.19-2.8.08,0,0-.07,0-.11A21.59,21.59,0,0,0,83,44.52c-.3-.91.55-1,.76-.07,0,.3-.24.33,0,.88.49,1.57.89,2.9,1.39,4.5.28,1.05.75,2.32,1,3.46.09.09,0,.25.15.34a.49.49,0,0,0,.1.36,2.31,2.31,0,0,0,.27.79s.15-.12.39.18" transform="translate(0 0)"/><path class="cls-6" d="M75.3,46.1c.06-.12,0-.54.2-.7a.85.85,0,0,1,.1.49c-.38,1.64-.87,3.24-1.29,5,0,.07-.07,0,0,.24a9.83,9.83,0,0,0-.5,1.83l-.05.11a6.61,6.61,0,0,0-.28,1.28c.26.48.1,1.12-.37.81l-.1,0c-.3-.43-.15-.56-.18-1-.25-.51-.47-1.11-.76-1.65,0,0,0-.11,0-.15-.32-.77-.71-1.72-1.14-2.55a.24.24,0,0,0-.1-.23c-.2-.39-.63-1.83-1-2-.6.43-.94,1.58-1.44,2.33l-.2.31a5.74,5.74,0,0,0-.29.6c-.08,0,0,.07,0,.12a19.77,19.77,0,0,0-1.07,1.87c.23.55-.18,1.14-.61.54-.17-.23,0-.42-.15-.69s-.37-.49-.61-.73a.21.21,0,0,0-.15-.19,17.7,17.7,0,0,0-1.39-1.8c0-.13,0-.24.1-.29.47.66,1,1.26,1.44,1.89l.15.18c1.16,2.13,1.66-.71,2.29-1.43a.92.92,0,0,0,.2-.32c.45-.85,1-1.73,1.48-2.65-.25-.65.17-1.22.66-.44.16.3,0,.43,0,.75.24.51.48,1.17.8,1.75a.4.4,0,0,0,.1.29c.37.87.81,1.82,1.24,2.78l.1.23A14.33,14.33,0,0,0,73,53.92l.1.16c.27,0,.33-.71.4-1.14.08,0,0-.07.05-.12.18-.61.4-1.39.55-2.13a.82.82,0,0,0,.1-.28c.35-1.34.75-2.74,1.09-4.2Z" transform="translate(0 0)"/><path class="cls-5" d="M53.64,45.59c.11,0,0-.24.09-.25.59-3.2,1.35-6.4,1.94-9.68,0-.07.06,0,0-.24s.09-.35.2-.64a.18.18,0,0,1,.2,0c-.22,1.28-.59,2.58-.8,4-.09,0,0,.12,0,.17-.37,1.68-.68,3.49-1.1,5.2-.06.54-.2,1-.3,1.54v.13c-.33,1.27-.54,2.75-.87,4.14,0,.18-.15.33,0,.52.16.35.15.59-.09.77-.71.18-.47-.73-.74-1.34-.9-1.81-1.76-3.49-2.66-5.38-.09-.17-.41-.13-.59-.5,0-.05,0-.12-.05-.15,0-.42.23-.43,0-1.08-.59-2-1.34-3.8-1.88-5.77l.44.75s0,.11,0,.14c.71,2,1.51,5.32,2.12,5.64.12.15.13.29.12.61l-.05.11c4,7.72,2.57,7.29,4,1.45Z" transform="translate(0 0)"/><path class="cls-5" d="M74.26,51.09s-.07-.05,0-.24c.47.81.8,1.78,1.29,2.73l.1.17a9.22,9.22,0,0,0,.77,1.64.69.69,0,0,1,.46.46,2.51,2.51,0,0,0,.41,1.5c3,6.19,2.25,6.14,3.55,3.77.76-1.8,2.32-3.52,2.06-4.73.08,0,0-.06,0-.11s.35-.11.59,0c.47-.32.88-.81,1.35-1.16l.15.18c-.36.44-.9.81-1.29,1.28-.08,0,0,.06,0,.11a.4.4,0,0,1-.13.52c-.4,0-.53.17-.72.7C82,59.51,81.24,61,80.37,62.69l-.05.12c.27.84-.53,1.4-.75.23,0-.18.16-.32,0-.52,0-.06,0-.12,0-.15-.87-1.87-1.76-3.73-2.66-5.7-.14-.3-.35-.09-.57-.54a.69.69,0,0,1,0-.64c-.21-.55-.56-1.21-.83-1.85l-.1-.16C75,52.76,74.53,51.92,74.26,51.09Z" transform="translate(0 0)"/><path class="cls-5" d="M59.45,40.53a.75.75,0,0,1,.5.77c-.21.39-.08.74.07,1.38.83,3.54,1.66,6.86,2.51,10.42a1.18,1.18,0,0,0,.15.57c.2.79.16,1.62.73.6s1.12-1.69,1.75-2.61a.21.21,0,0,1,.15.19,4.26,4.26,0,0,1-.59.91c-.38,1-1.5,1.47-1.4,2.85,0,.06,0,.11-.23.18-.64-.07-.57-.74-.43-1.27-.5-2-.91-4-1.47-6.05v-.13c-.64-2.14-1-4.77-1.74-6.78l-.1,0c-.37-.34,0-.81-.35-1.23,0,0,0-.12,0-.15-.81-1.71-1.7-3.54-2.58-5.34l.15-.14c.87,1.8,1.79,3.69,2.73,5.59C59.29,40.38,59.34,40.5,59.45,40.53Z" transform="translate(0 0)"/><path class="cls-6" d="M45.09,36.85a14.83,14.83,0,0,1-1,1.73,2.77,2.77,0,0,1,.15-.79c.08,0,.05-.06.05-.11a9.61,9.61,0,0,0,1.15-2.43c.09-.12,0-.6.15-.79s.24,0,.33-.13l.26.43a4,4,0,0,0,.7,1.73l0,.08c.66,1.18,1.38,2.38,2.08,3.63a1.27,1.27,0,0,0,1.4.22c.11.08.1.19.09.3-.23.07-.65,0-.84.26a.37.37,0,0,1-.23.41c-.46.08-.59-.64-.55-1-.45-.75-.91-1.7-1.46-2.46,0,0,0-.11,0-.14l-.49-.83c-.19-.24-.84-1.87-1.1-1.37-.08,0-.11,0-.1.09a1.55,1.55,0,0,0-.24.5,2,2,0,0,0-.35.65Z" transform="translate(0 0)"/><path class="cls-6" d="M78.58,47.42c.29,1.16.88,2.47,1.19,3.67,0,.1,0,.07-.15.14-.44-1.25-.85-2.64-1.34-3.91,0-.06,0-.12,0-.15-2.08-5.93-1.29-6.21-2.48-1.75a.75.75,0,0,1-.15-.57c.1,0,0-.19.09-.18.09-.84.53-1.63.59-2.54-.11-.33-.2-.62,0-.79s.62,0,.72.57c0,.26-.2.13-.08.54.55,1.53,1,3.25,1.64,4.83C78.54,47.33,78.5,47.39,78.58,47.42Z" transform="translate(0 0)"/><path class="cls-6" d="M63.57,49.53c-.09,0-.26-.46-.43-.43s-.48-.16-.61-.52.31-.35,0-1.08c-.61-2.16-1.12-4.12-1.8-6.31,0,0,0-.11-.05-.15s.05-.14,0-.21v-.06l0-.09c0-.07,0-.14-.05-.21a16.73,16.73,0,0,1-.45-2.36c.11.06,0,.19.1.25.21.79.44,1.67.7,2.5,0,0,0,.11,0,.14.66,2.2,1.7,7,2.24,7.22.3.39,0,.75.44,1C63.6,49.29,63.68,49.42,63.57,49.53Z" transform="translate(0 0)"/><path class="cls-6" d="M53.83,38.42c-.23.54-.91.89-.69,1.78-.09.53-.46.29-.8,0a15.08,15.08,0,0,1-1.54.38c-.11-.07-.1-.18-.1-.29.61-.22,1.54,0,1.76-.84.58.05.77-.64,1.08-1.17.07,0,0-.07.05-.11.7-.94,1.22-2.24,2-3.22a3.11,3.11,0,0,1-.34,1.1c-.08,0,0,.06,0,.11A19.35,19.35,0,0,0,53.83,38.42Z" transform="translate(0 0)"/><path class="cls-6" d="M59.65,37.17c-.06-.05-.06-.19-.2-.2l-.1,0c-.31-1-2-1.63-2.61-2.11-.06-.13-.15-.1-.22-.15l-.15.14-.25,0a.18.18,0,0,0-.2,0c0-.42.22-.72.6-.62.14.6,2,1.4,2.45,1.8.05.1.12.1.18.12C59.41,36.4,59.7,36.62,59.65,37.17Z" transform="translate(0 0)"/><path class="cls-7" d="M59.15,36.08c-.06,0-.13,0-.18-.12-.68-.56-2.52-1.36-2.45-1.8.35,0,.9.62,1.39.86S59.08,35.5,59.15,36.08Z" transform="translate(0 0)"/><path class="cls-5" d="M86.28,54.17a13,13,0,0,1-1,.94.23.23,0,0,1-.2-.21c.35-.21.7-.78,1.14-.94C86.33,54,86.26,54.1,86.28,54.17Z" transform="translate(0 0)"/><path class="cls-6" d="M80.37,52c.07.38-.22.69-.57.44a1,1,0,0,1-.23-.67C79.85,52.14,80.06,52.43,80.37,52Z" transform="translate(0 0)"/><path class="cls-8" d="M55.72,35.42s.07,0,0,.24C55.7,35.62,55.6,35.61,55.72,35.42Z" transform="translate(0 0)"/><path class="cls-9" d="M60.54,40.47c.1.07,0,.14.05.21S60.56,40.54,60.54,40.47Z" transform="translate(0 0)"/><path class="cls-10" d="M60.64,40.83c.1.07,0,.14,0,.21S60.66,40.9,60.64,40.83Z" transform="translate(0 0)"/><path class="cls-9" d="M44.34,37.68s0,.13-.05.11S44.27,37.66,44.34,37.68Z" transform="translate(0 0)"/><path class="cls-11" d="M55.57,35s0-.14,0-.11S55.65,35,55.57,35Z" transform="translate(0 0)"/><path class="cls-7" d="M55.18,36.19s0-.13,0-.11S55.25,36.21,55.18,36.19Z" transform="translate(0 0)"/><path class="cls-9" d="M60.59,40.68l0,.09Z" transform="translate(0 0)"/><path class="cls-5" d="M86.91,54.14c-.12,0-.27-.21-.41-.15a.47.47,0,0,1-.12-.36.62.62,0,0,1,.24-.63c.26,0,.95.77.29,1.14" transform="translate(0 0)"/><path class="cls-10" d="M45.09,36.85l0,0Z" transform="translate(0 0)"/><path class="cls-5" d="M73,48A.79.79,0,0,1,73.51,49a10.54,10.54,0,0,0,.65,1.37.82.82,0,0,1-.1.28c-.34-.4-.47-1.45-1-1.65L73,49c-.17-.4-1.63.56-1.93.59a.4.4,0,0,1-.1-.29C71.62,48.89,72.62,48.94,73,48Z" transform="translate(0 0)"/><path class="cls-5" d="M66,50.2c-.09-.56.28-1,.81-.29.39.05.74-.09,1.18,0a.92.92,0,0,1-.2.32,3.64,3.64,0,0,0-1,0,.43.43,0,0,1-.24.41c-.58-.17-.65.59-1.06,1l-.15-.18C65.41,51,66,50.73,66,50.2Z" transform="translate(0 0)"/><path class="cls-5" d="M46.73,35.7l.05.15c0,.17.13.36.15.64a3.82,3.82,0,0,1-.7-1.73L46,34.33c-.08.16-.15.05-.33.13.17-.38-.37-1.12.09-1.38,0,0,.1.06.1,0,.57.25.47.69.43,1.26C46.4,34.77,46.58,35.21,46.73,35.7Z" transform="translate(0 0)"/><path class="cls-5" d="M68.29,49.83c.27,0,.78.13,1-.09,0-.08.11-.39.29-.32.61.39.46.1,1.1.06a.24.24,0,0,1,.1.23c-.9,0-.44.84-1.12.76-.17,0-.26-.41-.49-.32s-.74.06-1.13,0Z" transform="translate(0 0)"/><path class="cls-8" d="M47.42,37.77c.08,0,0,.09,0,.14S47.43,37.82,47.42,37.77Z" transform="translate(0 0)"/><path class="cls-12" d="M47,36.57l0-.08Z" transform="translate(0 0)"/><path class="cls-12" d="M47,37l0-.08Z" transform="translate(0 0)"/><path class="cls-13" d="M86.44,22.62l-41.13-15c-2.46-.9-4.59-.26-5.62,1.42a5.1,5.1,0,0,1,4.12,0L85,24c3.47,1.26,6.3,5.11,6.3,8.57v94.67a4.8,4.8,0,0,1-.68,2.56,4.15,4.15,0,0,0,2.18-3.94V31.19A10.14,10.14,0,0,0,86.44,22.62Z" transform="translate(0 0)"/><path class="cls-14" d="M35.44,172.81s-2-.71-2.22-5.05H27.47l-.56,6,4.29,3.58,3.8-1.91Z" transform="translate(0 0)"/><path class="cls-1" d="M26.91,173.72s6.71,2.22,8.53-.91c0,0,12.4,4.62,12.31,6-.14,2.18-10.39,2.63-12.66,2.07l-2-2-.86,2.27H26.61S26.66,174.07,26.91,173.72Z" transform="translate(0 0)"/><path class="cls-14" d="M14,172.86s-1.93-.8-2-5.15l-5.75-.26-.83,5.92,4.12,3.78,3.82-1.69Z" transform="translate(0 0)"/><path class="cls-1" d="M5.41,173.37s6.6,2.53,8.56-.51c0,0,10.85,3.91,11.48,5.7s-10,3-12.2,2.35l-1.88-2.06-1,2.23-5.65-.26S5.14,173.71,5.41,173.37Z" transform="translate(0 0)"/><path class="cls-1" d="M1.53,104.68s3.73,15.14,4.64,17.67S9,137.18,9.1,137.59s-4.24,32.09-4.24,32.09,5.85,1.31,8.18-.2l6.35-32L16.67,106Z" transform="translate(0 0)"/><path class="cls-1" d="M2.34,103.88s5.75,9.84,10.9,14.23,11.5,16.2,11.5,16.2l.76,35.12h0a8.14,8.14,0,0,0,8.09.21l.39-.21s.91-36.49.75-38.91-13-30.28-13-30.28Z" transform="translate(0 0)"/><path class="cls-1" d="M24.59,39.38s-4.5,15.91-11.73,15.44c-6.33-.4-7.51-7-6-15.06,1.59-8.4,8.53-7.29,12.56-7.34,0,0,5,0,5.83-3.86,0,0,5.83,8-.68,10.82" transform="translate(0 0)"/><path class="cls-15" d="M13.11,58.77S4.3,57.21.22,76c-1.71,7.9,7.26,20.29,7.26,20.29l9.39-18.07Z" transform="translate(0 0)"/><path class="cls-16" d="M50.1,48.09s3.33-9.16,3.33-11.66,1.89-.3,1.82,1.59a28.45,28.45,0,0,1-.53,4s2.57.23,2.57,1.44-.83,5.45-2,6.13Z" transform="translate(0 0)"/><path class="cls-4" d="M71,87.08a.8.8,0,0,1-.29,0l-2.09-.77a1.15,1.15,0,0,1-.29-.16V65.37l2.61.95,0,0,0,0Z" transform="translate(0 0)"/><path class="cls-4" d="M87.47,93.06a.73.73,0,0,1-.28,0c-.7-.26-1.4-.52-2.1-.76a2,2,0,0,1-.29-.17V72.28l2.61,1,0,0s0,0,0,0Z" transform="translate(0 0)"/><path class="cls-4" d="M54.61,81.16l-2.59-1v-19l2.59,1Z" transform="translate(0 0)"/><path class="cls-6" d="M64.48,84.7a1.18,1.18,0,0,1-.29,0l-2.09-.76a1.05,1.05,0,0,1-.29-.17V72l2.61.95,0,0s0,0,0,0Z" transform="translate(0 0)"/><path class="cls-6" d="M80.84,79.29V90.7l-2.49-.9-.1-.09V78.39a0,0,0,0,1,0,0h0Z" transform="translate(0 0)"/><path class="cls-6" d="M48.05,78.77l-2.55-.93c-.06-.27-.09-10.25,0-11.25l2.58.94Z" transform="translate(0 0)"/><path class="cls-5" d="M51.29,80,48.7,79V70.76l2.59.95Z" transform="translate(0 0)"/><path class="cls-5" d="M67.72,85.93,65.13,85V77.84l2.53.92,0,0,0,0Z" transform="translate(0 0)"/><path class="cls-5" d="M84.16,91.91,81.56,91V84.2l2.53.92,0,0,0,0Z" transform="translate(0 0)"/><path class="cls-17" d="M44.73,77.56l-2.59-.94v-4l2.53.93,0,0,0,0Z" transform="translate(0 0)"/><path class="cls-17" d="M61.16,83.54l-2.59-.94V78.67l2.53.92,0,0s0,0,0,0Z" transform="translate(0 0)"/><path class="cls-17" d="M77.6,89.52,75,88.58V85.14l2.59,1Z" transform="translate(0 0)"/><path class="cls-18" d="M18,60.05c5.85,3,18.39,10.9,21.27,8.32S50.1,48.09,50.1,48.09l5.15,1.51S44.25,79.12,41,79.05s-14.33-2.22-14.33-2.22-1,20.84-4,26.59c0,0-14.91,5.38-22.63,1A28.57,28.57,0,0,0,4.68,84.19C3,71.59,6.31,54,18,60.05Z" transform="translate(0 0)"/><path class="cls-16" d="M24.59,39.38A15.25,15.25,0,0,0,26,43.47,12.23,12.23,0,0,0,28.6,46l-1.43,1.82a6.55,6.55,0,0,1-5.4,7.53h-.28l-.68,6.28L13.16,59.1l-.3-4.32a5.16,5.16,0,0,0,1.32-2.72,3.62,3.62,0,0,1-1-3.22c.49-1.74,2-3.06,2.76-2.42a3.3,3.3,0,0,1,.8,1.93h1s-.17-2.88.42-4.09A9.56,9.56,0,0,1,24.59,39.38Z" transform="translate(0 0)"/><path class="cls-19" d="M20.81,61.71l.68-6.28a6.55,6.55,0,0,0,5.72-7.29h0v-.28L28.6,46A12.23,12.23,0,0,1,26,43.47a15.49,15.49,0,0,1-1.36-4.09c-.31.07-.58.17-.87.26a22.63,22.63,0,0,1,1.33,5.57c.25,3.25-.27,6.92-4.82,9.68-1.54.94-2.1,3.49-2.27,5.87Z" transform="translate(0 0)"/><path class="cls-20" d="M18.29,124.72c-5-1.14-9.79-4.15-13.46-7.08-1.2-4.54-2.74-10.74-3.18-12.48a14.21,14.21,0,0,0,1.8.52c1.91,3,6,9.21,9.78,12.42a35.09,35.09,0,0,1,5,5.75Z" transform="translate(0 0)"/><text/><path class="cls-21" d="M91.3,32.48,39,13.45c-.16-2.5,0-4.54,1.81-5.58L85.31,24.06C89.82,25.66,91.3,30.4,91.3,32.48Zm-5.72-3.72a.47.47,0,0,0,.17,0c.08,0,.13-.07.11-.19a1,1,0,0,0,.33-.44,2,2,0,0,0-.08-1.46,3,3,0,0,0-1-1.29,3,3,0,0,0-.87-.42c-.12.08-.29,0-.42,0a1.4,1.4,0,0,0-.46.26A1.51,1.51,0,0,0,83,26.88a2,2,0,0,0,.35.76.31.31,0,0,0,.12.27l.16.14a2.11,2.11,0,0,0,1,.75A1.06,1.06,0,0,0,85.58,28.76ZM79.88,26a2.21,2.21,0,0,0,.26-.59,2.24,2.24,0,0,0-.71-1.76A1.18,1.18,0,0,0,78,23.39a1.33,1.33,0,0,0-.27,1.38c.27.84,1,1.44,1.54,1.38l.52,0,.55.82.12-.12ZM44.18,10.74v2.95l.61.22V11Zm-1,.71a11.55,11.55,0,0,0,0,1.86l.66.24v-1.8a.08.08,0,0,0,0,0l0,0Zm-.4,1.72v-.7l-.6-.21V13Zm44.06,14,.28.43c.1.14.2.27.25.35l.53-.39Z" transform="translate(0 0)"/><path class="cls-22" d="M83.35,27.64a2,2,0,0,1-.35-.76,1.51,1.51,0,0,1,.41-1.66,1.4,1.4,0,0,1,.46-.26,1.13,1.13,0,0,1,.42,0,3,3,0,0,1,.87.42,3,3,0,0,1,1,1.29,2,2,0,0,1,.08,1.46,1,1,0,0,1-.33.44c0-.27-.13-.52-.24-.78-.14-.07-.24-.26-.39-.31-.42-.14-.83-.31-1.24-.44a.41.41,0,0,0-.48.09A.6.6,0,0,0,83.35,27.64Zm1.39-2.23-.26-.09c-.46,0-.61.29-.57.74l.18.47.36.33.31.12.36-.08.18-.33A1.22,1.22,0,0,0,84.74,25.41Z" transform="translate(0 0)"/><path class="cls-23" d="M79.88,26l.56.83-.12.12-.55-.82-.52,0c-.5.06-1.27-.54-1.54-1.38A1.33,1.33,0,0,1,78,23.39a1.18,1.18,0,0,1,1.45.23,2.24,2.24,0,0,1,.71,1.76A2.21,2.21,0,0,1,79.88,26Zm-1.17-2.45c-.6.07-.88.4-.79,1.11a2.31,2.31,0,0,0,.73,1.06l.48.18a.81.81,0,0,0,.74-.61A1.68,1.68,0,0,0,78.71,23.52Z" transform="translate(0 0)"/><path class="cls-22" d="M85.58,28.76a1.06,1.06,0,0,1-1,0,2.11,2.11,0,0,1-1-.75v-.54l.28-.21,1.39.5.28.42Z" transform="translate(0 0)"/><path class="cls-24" d="M44.18,10.74l.61.22v2.95l-.61-.22Z" transform="translate(0 0)"/><path class="cls-25" d="M43.16,11.45l.62.23,0,0a.08.08,0,0,1,0,0v1.8l-.66-.24A11.55,11.55,0,0,1,43.16,11.45Z" transform="translate(0 0)"/><path class="cls-26" d="M85.58,28.76v-.54l-.28-.42-1.39-.5-.28.21v.54a.7.7,0,0,1-.16-.14c-.13-.15-.14-.17-.12-.27a.6.6,0,0,1,.16-.53A.41.41,0,0,1,84,27c.41.13.82.3,1.24.44.15.05.25.24.39.31.11.26.29.51.24.78s0,.17-.11.19A.47.47,0,0,1,85.58,28.76Z" transform="translate(0 0)"/><path class="cls-27" d="M42.76,13.17l-.6-.22v-.69l.6.21Z" transform="translate(0 0)"/><path class="cls-28" d="M86.82,27.12l1.06.39-.53.39c0-.08-.15-.21-.25-.35Z" transform="translate(0 0)"/><path class="cls-26" d="M84.74,25.41a1.22,1.22,0,0,1,.56,1.16l-.18.33-.36.08-.31-.12-.36-.33-.18-.47c0-.45.11-.74.57-.74Zm-.12,1.21c.2,0,.41,0,.4-.33a.67.67,0,0,0-.42-.61c-.2-.07-.41,0-.41.33A.7.7,0,0,0,84.62,26.62Z" transform="translate(0 0)"/><path class="cls-21" d="M78.71,23.52a1.68,1.68,0,0,1,1.16,1.74.81.81,0,0,1-.74.61l-.48-.18a2.31,2.31,0,0,1-.73-1.06C77.83,23.92,78.11,23.59,78.71,23.52Z" transform="translate(0 0)"/><path class="cls-22" d="M84.62,26.62a.7.7,0,0,1-.43-.61c0-.31.21-.4.41-.33a.67.67,0,0,1,.42.61C85,26.6,84.82,26.66,84.62,26.62Z" transform="translate(0 0)"/><text class="cls-29" transform="matrix(1, 0.36, 0, 1, 46.23, 14.13)">Blicc</text><path class="cls-14" d="M79.74,19.43,51.79,9.3,53.21,13a6.44,6.44,0,0,0,3.6,3.67l18,6.52c1.57.57,3,.16,3.6-1Z" transform="translate(0 0)"/><path class="cls-30" d="M64.48,93.06" transform="translate(0 0)"/><path class="cls-5" d="M53.4,100.91A14.5,14.5,0,0,0,56.19,109l7.56-4.31V94.33C58,92.25,53.4,95.2,53.4,100.91Z" transform="translate(0 0)"/><path class="cls-31" d="M72.5,113.38a7.63,7.63,0,0,0,1.59-4.93c0-5.72-4.63-12-10.34-14.12v10.35Z" transform="translate(0 0)"/><path class="cls-6" d="M56.19,109a16.35,16.35,0,0,0,7.56,6c3.69,1.34,6.92.59,8.75-1.65l-8.75-8.7Z" transform="translate(0 0)"/></svg>