<svg id="Layer_1" data-name="Layer 1" xmlns="http://www.w3.org/2000/svg" viewBox="0 0 99.99 181.15"><defs><style>.ap-1{fill:#17161c;}.ap-2{fill:#212529;}.ap-3{fill:#fff;}.ap-4{fill:#34648c;opacity:0.25;isolation:isolate;}.ap-5{fill:#495057;}.ap-6{fill:#22d0ab;}.ap-7{fill:#14148d;}.ap-8{fill:#df209f;}.ap-9{fill:#d8c0c5;}.ap-10{fill:#76496c;}.ap-11{fill:#eaa978;}.ap-12{fill:#735e75;}.ap-13{fill:#efcb9c;}.ap-14{fill:#171819;}</style></defs><title>AppUser</title><g id="OBJECTS"><path class="ap-1" d="M45.32,118.69c-5.6-2-10.16-8.24-10.16-13.82V10.2c0-5.58,4.56-8.45,10.16-6.41l41.13,15c5.6,2,10.15,8.24,10.15,13.82v94.67c0,5.58-4.55,8.46-10.15,6.41Z" transform="translate(-0.01 0)"/><path class="ap-2" d="M46,121.82c-5.9-2.15-10.71-8.69-10.71-14.57V7.46C35.29,1.57,40.1-1.46,46,.69l43.35,15.8C95.24,18.65,100,25.18,100,31.06v99.8c0,5.88-4.8,8.92-10.71,6.76Z" transform="translate(-0.01 0)"/><path class="ap-3" d="M45.32,114.85c-3.47-1.27-6.3-5.11-6.3-8.57V11.61c0-3.46,2.83-5.25,6.3-4l41.13,15c3.47,1.27,6.3,5.11,6.3,8.57v94.67c0,3.46-2.83,5.25-6.31,4Z" transform="translate(-0.01 0)"/><path class="ap-4" d="M86.45,22.62l-41.13-15c-2.46-.9-4.59-.26-5.62,1.42a5.1,5.1,0,0,1,4.12,0L85,24c3.47,1.26,6.3,5.11,6.3,8.57v94.67a4.8,4.8,0,0,1-.68,2.56,4.16,4.16,0,0,0,2.18-3.94V31.19C92.75,27.73,89.92,23.89,86.45,22.62Z" transform="translate(-0.01 0)"/><path class="ap-5" d="M81.18,19.94,50.59,8.79,52,12.44a6.38,6.38,0,0,0,3.6,3.67l20.67,7.54c1.57.57,3,.16,3.6-1Z" transform="translate(-0.01 0)"/><path class="ap-6" d="M84.77,35.63,47,21.86c-2-.74-3.67.3-3.67,2.32v17a5.81,5.81,0,0,0,3.67,5L84.77,60c2,.73,3.67-.3,3.67-2.32v-17A5.82,5.82,0,0,0,84.77,35.63Z" transform="translate(-0.01 0)"/><path class="ap-7" d="M84.77,65.58,47,51.81c-2-.74-3.67.3-3.67,2.32v17a5.81,5.81,0,0,0,3.67,5L84.77,89.92c2,.74,3.67-.3,3.67-2.31v-17A5.78,5.78,0,0,0,84.77,65.58Z" transform="translate(-0.01 0)"/><path class="ap-8" d="M84.77,95.85,47,82.08c-2-.74-3.67.29-3.67,2.31v17a5.83,5.83,0,0,0,3.67,5l37.78,13.77c2,.74,3.67-.3,3.67-2.32v-17A5.79,5.79,0,0,0,84.77,95.85Z" transform="translate(-0.01 0)"/><path class="ap-3" d="M72.67,38.48,59.62,33.72a.54.54,0,0,0-.73.21.53.53,0,0,0-.07.3h0a1.28,1.28,0,0,0,.8,1.09l13.05,4.76a.54.54,0,0,0,.73-.21.53.53,0,0,0,.07-.3h0A1.28,1.28,0,0,0,72.67,38.48Z" transform="translate(-0.01 0)"/><path class="ap-3" d="M72.67,47.44,59.62,42.68a.54.54,0,0,0-.73.21.53.53,0,0,0-.07.3h0a1.28,1.28,0,0,0,.8,1.08L72.67,49a.54.54,0,0,0,.73-.21.5.5,0,0,0,.07-.29h0A1.27,1.27,0,0,0,72.67,47.44Z" transform="translate(-0.01 0)"/><path class="ap-3" d="M76.69,44.48,55.08,36.61c-.44-.16-.8.06-.8.5h0a1.28,1.28,0,0,0,.8,1.09l21.61,7.88a.54.54,0,0,0,.73-.21.53.53,0,0,0,.07-.3h0A1.28,1.28,0,0,0,76.69,44.48Z" transform="translate(-0.01 0)"/><path class="ap-3" d="M72.67,70.59,59.62,65.84c-.44-.16-.8.06-.8.5h0a1.28,1.28,0,0,0,.8,1.09l13.05,4.76A.54.54,0,0,0,73.4,72a.53.53,0,0,0,.07-.3h0A1.28,1.28,0,0,0,72.67,70.59Z" transform="translate(-0.01 0)"/><path class="ap-3" d="M76.69,76.6,55.08,68.72a.54.54,0,0,0-.73.21.53.53,0,0,0-.07.3h0a1.28,1.28,0,0,0,.8,1.08l21.61,7.88a.54.54,0,0,0,.73-.21.5.5,0,0,0,.07-.29h0A1.28,1.28,0,0,0,76.69,76.6Z" transform="translate(-0.01 0)"/><path class="ap-3" d="M72.67,98.67,59.62,93.91a.54.54,0,0,0-.73.21.53.53,0,0,0-.07.3h0a1.28,1.28,0,0,0,.8,1.09l13.05,4.76a.54.54,0,0,0,.73-.21.53.53,0,0,0,.07-.3h0A1.28,1.28,0,0,0,72.67,98.67Z" transform="translate(-0.01 0)"/><path class="ap-3" d="M72.67,107.55l-13.05-4.76a.54.54,0,0,0-.73.21.5.5,0,0,0-.07.29h0a1.28,1.28,0,0,0,.8,1.09l13.05,4.76a.54.54,0,0,0,.73-.21.5.5,0,0,0,.07-.29h0A1.28,1.28,0,0,0,72.67,107.55Z" transform="translate(-0.01 0)"/><path class="ap-3" d="M76.69,104.68,55.08,96.8c-.44-.16-.8.06-.8.5h0a1.28,1.28,0,0,0,.8,1.09l21.61,7.88a.54.54,0,0,0,.73-.21.53.53,0,0,0,.07-.3h0A1.28,1.28,0,0,0,76.69,104.68Z" transform="translate(-0.01 0)"/><path class="ap-9" d="M35.45,172.81s-2-.71-2.22-5.05H27.48l-.56,6,4.29,3.58L35,175.43Z" transform="translate(-0.01 0)"/><path class="ap-2" d="M26.92,173.72s6.71,2.22,8.53-.91c0,0,12.4,4.62,12.31,6-.14,2.18-10.39,2.63-12.66,2.07l-2-2-.86,2.27H26.62S26.67,174.07,26.92,173.72Z" transform="translate(-0.01 0)"/><path class="ap-9" d="M14,172.86s-1.93-.8-2-5.15l-5.75-.26-.83,5.92,4.12,3.78,3.82-1.69Z" transform="translate(-0.01 0)"/><path class="ap-2" d="M5.42,173.37s6.6,2.53,8.56-.51c0,0,10.85,3.91,11.48,5.7s-10,3-12.2,2.35l-1.88-2.06-1,2.23-5.65-.26S5.15,173.71,5.42,173.37Z" transform="translate(-0.01 0)"/><path class="ap-2" d="M1.54,104.68s3.73,15.14,4.64,17.67S9,137.18,9.11,137.59s-4.24,32.09-4.24,32.09,5.85,1.31,8.18-.2l6.35-32L16.68,106Z" transform="translate(-0.01 0)"/><path class="ap-2" d="M2.35,103.88s5.75,9.84,10.9,14.23,11.5,16.2,11.5,16.2l.76,35.12h0a8.14,8.14,0,0,0,8.09.21l.39-.21s.91-36.49.75-38.91-13-30.28-13-30.28Z" transform="translate(-0.01 0)"/><path class="ap-2" d="M24.6,39.38S20.1,55.29,12.87,54.82c-6.33-.4-7.51-7-6-15.06,1.59-8.4,8.53-7.29,12.56-7.34,0,0,5,0,5.83-3.86,0,0,5.83,8-.68,10.82" transform="translate(-0.01 0)"/><path class="ap-10" d="M13.12,58.77S4.31,57.21.23,76c-1.71,7.9,7.26,20.29,7.26,20.29l9.39-18.07Z" transform="translate(-0.01 0)"/><path class="ap-11" d="M50.11,48.09s3.33-9.16,3.33-11.66,1.89-.3,1.82,1.59a28.45,28.45,0,0,1-.53,4s2.57.23,2.57,1.44-.83,5.45-2,6.13Z" transform="translate(-0.01 0)"/><path class="ap-12" d="M18,60.05c5.85,3,18.39,10.9,21.27,8.32S50.11,48.09,50.11,48.09l5.15,1.51S44.26,79.12,41,79.05s-14.33-2.22-14.33-2.22-1,20.84-4,26.59c0,0-14.91,5.38-22.63,1A28.58,28.58,0,0,0,4.69,84.19C3,71.59,6.32,54,18,60.05Z" transform="translate(-0.01 0)"/><path class="ap-11" d="M24.6,39.38A15.23,15.23,0,0,0,26,43.47,12.28,12.28,0,0,0,28.61,46l-1.43,1.82a6.55,6.55,0,0,1-5.4,7.53l-.28,0-.68,6.28L13.17,59.1l-.3-4.32a5.16,5.16,0,0,0,1.32-2.72,3.62,3.62,0,0,1-1-3.22c.49-1.74,2-3.06,2.76-2.42a3.23,3.23,0,0,1,.8,1.93h1s-.17-2.88.42-4.09A9.56,9.56,0,0,1,24.6,39.38Z" transform="translate(-0.01 0)"/><path class="ap-13" d="M20.82,61.71l.68-6.28a6.55,6.55,0,0,0,5.72-7.29,2.7,2.7,0,0,0,0-.28L28.61,46A12.28,12.28,0,0,1,26,43.47a15.49,15.49,0,0,1-1.36-4.09c-.31.07-.58.17-.87.26a22.63,22.63,0,0,1,1.33,5.57c.25,3.25-.27,6.92-4.82,9.68-1.54.94-2.1,3.49-2.27,5.87Z" transform="translate(-0.01 0)"/><path class="ap-14" d="M18.3,124.72c-5-1.14-9.79-4.15-13.46-7.08-1.2-4.54-2.74-10.74-3.18-12.48a14.21,14.21,0,0,0,1.8.52c1.91,3,6,9.21,9.78,12.42a35.09,35.09,0,0,1,5,5.75Z" transform="translate(-0.01 0)"/></g></svg>