<svg id="Layer_1" data-name="Layer 1" xmlns="http://www.w3.org/2000/svg" viewBox="0 0 100 181.15"><defs><style>.cls-1{fill:#212529;}.cls-2{fill:#17161c;}.cls-3{fill:#fff;}.cls-4{fill:#fdfdfc;}.cls-5{fill:#fafafa;}.cls-6{fill:#fcfcfc;}.cls-7{fill:#f7f7f7;}.cls-8{fill:#df817a;}.cls-9{fill:#34648c;opacity:0.25;isolation:isolate;}.cls-10{fill:#495057;}.cls-11{fill:#76496c;}.cls-12{fill:#df209f;}.cls-13,.cls-16,.cls-17,.cls-22{fill:none;}.cls-13{stroke:#df209f;}.cls-13,.cls-16,.cls-17{stroke-miterlimit:10;stroke-width:0.6px;}.cls-14{fill:#22d0ab;}.cls-15{fill:#14148d;}.cls-16{stroke:#14148d;}.cls-17{stroke:#22d0ab;}.cls-18{fill:#735e75;}.cls-19{fill:#e2a38d;}.cls-20{fill:#e5bbaa;}.cls-21{fill:#171819;}</style></defs><title>AppUser</title><path class="cls-1" d="M46,121.82c-5.9-2.15-10.71-8.69-10.71-14.57V7.46C35.29,1.57,40.1-1.46,46,.69l43.35,15.8C95.23,18.65,100,25.18,100,31.06v99.8c0,5.88-4.8,8.92-10.71,6.76Z" transform="translate(0 0)"/><path class="cls-2" d="M45.31,118.69c-5.6-2-10.16-8.24-10.16-13.82V10.2c0-5.58,4.56-8.45,10.16-6.41l41.13,15c5.6,2,10.15,8.24,10.15,13.82v94.67c0,5.58-4.55,8.46-10.15,6.41Z" transform="translate(0 0)"/><path class="cls-3" d="M45.31,114.85c-3.47-1.27-6.3-5.11-6.3-8.57V11.61c0-3.46,2.83-5.25,6.3-4l41.13,15c3.47,1.27,6.3,5.11,6.3,8.57v94.67c0,3.46-2.83,5.25-6.31,4Z" transform="translate(0 0)"/><path class="cls-4" d="M55.72,35.42s.07,0,0,.24C55.7,35.62,55.6,35.61,55.72,35.42Z" transform="translate(0 0)"/><path class="cls-5" d="M60.54,40.47c.1.07,0,.14.05.21S60.56,40.54,60.54,40.47Z" transform="translate(0 0)"/><path class="cls-6" d="M60.64,40.83c.1.07,0,.14,0,.21S60.66,40.9,60.64,40.83Z" transform="translate(0 0)"/><path class="cls-5" d="M44.34,37.68s0,.13-.05.11S44.27,37.66,44.34,37.68Z" transform="translate(0 0)"/><path class="cls-7" d="M55.18,36.19v-.11S55.25,36.21,55.18,36.19Z" transform="translate(0 0)"/><path class="cls-5" d="M60.59,40.68v0Z" transform="translate(0 0)"/><path class="cls-6" d="M45.09,36.85Z" transform="translate(0 0)"/><path class="cls-4" d="M47.42,37.77c.08,0,0,.09,0,.14A.47.47,0,0,0,47.42,37.77Z" transform="translate(0 0)"/><path class="cls-8" d="M47,36.57v0Z" transform="translate(0 0)"/><path class="cls-8" d="M47,37v0Z" transform="translate(0 0)"/><path class="cls-9" d="M86.44,22.62l-41.13-15c-2.46-.9-4.59-.26-5.62,1.42a5.1,5.1,0,0,1,4.12,0L85,24c3.47,1.26,6.3,5.11,6.3,8.57v94.67a4.8,4.8,0,0,1-.68,2.56,4.15,4.15,0,0,0,2.18-3.94V31.19A10.14,10.14,0,0,0,86.44,22.62Z" transform="translate(0 0)"/><path class="cls-10" d="M35.44,172.81s-2-.71-2.22-5.05H27.47l-.56,6,4.29,3.58,3.8-1.91Z" transform="translate(0 0)"/><path class="cls-1" d="M26.91,173.72s6.71,2.22,8.53-.91c0,0,12.4,4.62,12.31,6-.14,2.18-10.39,2.63-12.66,2.07l-2-2-.86,2.27H26.61S26.66,174.07,26.91,173.72Z" transform="translate(0 0)"/><path class="cls-10" d="M14,172.86s-1.93-.8-2-5.15l-5.75-.26-.83,5.92,4.12,3.78,3.82-1.69Z" transform="translate(0 0)"/><path class="cls-1" d="M5.41,173.37s6.6,2.53,8.56-.51c0,0,10.85,3.91,11.48,5.7s-10,3-12.2,2.35l-1.88-2.06-1,2.23-5.65-.26S5.14,173.71,5.41,173.37Z" transform="translate(0 0)"/><path class="cls-1" d="M1.53,104.68s3.73,15.14,4.64,17.67S9,137.18,9.1,137.59s-4.24,32.09-4.24,32.09,5.85,1.31,8.18-.2l6.35-32L16.67,106Z" transform="translate(0 0)"/><path class="cls-1" d="M2.34,103.88s5.75,9.84,10.9,14.23,11.5,16.2,11.5,16.2l.76,35.12h0a8.14,8.14,0,0,0,8.09.21l.39-.21s.91-36.49.75-38.91-13-30.28-13-30.28Z" transform="translate(0 0)"/><path class="cls-1" d="M24.59,39.38s-4.5,15.91-11.73,15.44c-6.33-.4-7.51-7-6-15.06,1.59-8.4,8.53-7.29,12.56-7.34,0,0,5,0,5.83-3.86,0,0,5.83,8-.68,10.82" transform="translate(0 0)"/><path class="cls-11" d="M13.11,58.77S4.3,57.21.22,76c-1.71,7.9,7.26,20.29,7.26,20.29l9.39-18.07Z" transform="translate(0 0)"/><ellipse class="cls-12" cx="42.7" cy="62.51" rx="0.92" ry="1.34" transform="translate(-31.4 47.03) rotate(-43.86)"/><ellipse class="cls-12" cx="51.56" cy="61.34" rx="0.92" ry="1.34" transform="translate(-28.12 52.84) rotate(-43.86)"/><ellipse class="cls-12" cx="60.35" cy="77.73" rx="0.92" ry="1.34" transform="translate(-37.02 63.5) rotate(-43.86)"/><ellipse class="cls-12" cx="69.25" cy="72.12" rx="0.92" ry="1.34" transform="translate(-30.66 68.1) rotate(-43.86)"/><ellipse class="cls-12" cx="77.94" cy="73.08" rx="0.92" ry="1.34" transform="translate(-28.9 74.39) rotate(-43.86)"/><ellipse class="cls-12" cx="86.88" cy="73.03" rx="0.92" ry="1.34" transform="translate(-26.37 80.57) rotate(-43.86)"/><polyline class="cls-13" points="42.74 62.5 51.55 61.3 60.37 77.74 69.19 72.13 77.89 73.09 86.83 73.03"/><ellipse class="cls-14" cx="42.65" cy="71.22" rx="0.92" ry="1.34" transform="translate(-37.46 49.42) rotate(-43.86)"/><ellipse class="cls-14" cx="51.57" cy="70.15" rx="0.92" ry="1.34" transform="translate(-34.22 55.3) rotate(-43.86)"/><ellipse class="cls-14" cx="60.39" cy="68.95" rx="0.92" ry="1.34" transform="translate(-30.93 61.07) rotate(-43.86)"/><ellipse class="cls-14" cx="69.21" cy="75.46" rx="0.92" ry="1.34" transform="translate(-32.98 69) rotate(-43.86)"/><ellipse class="cls-14" cx="78.03" cy="74.26" rx="0.92" ry="1.34" transform="translate(-29.69 74.78) rotate(-43.86)"/><ellipse class="cls-15" cx="42.75" cy="58.12" rx="0.92" ry="1.34" transform="translate(-28.35 45.83) rotate(-43.86)"/><ellipse class="cls-15" cx="51.57" cy="77.86" rx="0.92" ry="1.34" transform="translate(-39.57 57.45) rotate(-43.86)"/><ellipse class="cls-15" cx="60.39" cy="73.36" rx="0.92" ry="1.34" transform="translate(-33.98 62.3) rotate(-43.86)"/><ellipse class="cls-15" cx="69.21" cy="83.18" rx="0.92" ry="1.34" transform="translate(-38.33 71.15) rotate(-43.86)"/><ellipse class="cls-15" cx="78.03" cy="80.88" rx="0.92" ry="1.34" transform="translate(-34.28 76.62) rotate(-43.86)"/><ellipse class="cls-15" cx="86.84" cy="75.27" rx="0.92" ry="1.34" transform="translate(-27.93 81.17) rotate(-43.86)"/><polyline class="cls-16" points="42.74 58.09 51.55 77.83 60.37 73.33 69.19 83.15 78.01 80.85 86.83 75.24"/><ellipse class="cls-14" cx="86.84" cy="78.58" rx="0.92" ry="1.34" transform="translate(-30.22 82.09) rotate(-43.86)"/><polyline class="cls-17" points="42.74 71.32 51.55 70.12 60.37 68.92 69.19 75.43 78.01 74.23 86.83 78.55"/><path class="cls-14" d="M71,53.32h-.29l-2.09-.77a1.64,1.64,0,0,1-.29-.16V31.61l2.61,1h0Z" transform="translate(0 0)"/><path class="cls-14" d="M87.45,59.3a1.31,1.31,0,0,1-.28,0c-.7-.26-1.4-.52-2.1-.76l-.29-.17V38.52l2.61,1h0Z" transform="translate(0 0)"/><path class="cls-14" d="M54.59,47.4,52,46.4v-19l2.59,1Z" transform="translate(0 0)"/><path class="cls-15" d="M64.46,50.94a1.4,1.4,0,0,1-.29,0l-2.09-.76a1.22,1.22,0,0,1-.29-.17V38.24l2.61.95h0Z" transform="translate(0 0)"/><path class="cls-15" d="M80.82,45.53V56.94L78.33,56l-.1-.09V44.63h0Z" transform="translate(0 0)"/><path class="cls-15" d="M48,45l-2.55-.93c-.06-.27-.09-10.25,0-11.25l2.58.94Z" transform="translate(0 0)"/><path class="cls-12" d="M51.27,46.24l-2.59-1V37l2.59,1Z" transform="translate(0 0)"/><path class="cls-12" d="M67.7,52.17l-2.59-.93V44.08l2.53.92h0Z" transform="translate(0 0)"/><path class="cls-12" d="M84.14,58.15l-2.6-.91v-6.8l2.53.92h0Z" transform="translate(0 0)"/><path class="cls-10" d="M44.71,43.8l-2.59-.94v-4l2.53.93h0Z" transform="translate(0 0)"/><path class="cls-10" d="M61.14,49.78l-2.59-.94V44.91l2.53.92h0Z" transform="translate(0 0)"/><path class="cls-10" d="M77.58,55.76,75,54.82V51.38l2.59,1Z" transform="translate(0 0)"/><path class="cls-18" d="M18,60.05c5.85,3,18.39,10.9,21.27,8.32S50.1,48.09,50.1,48.09l5.15,1.51S44.25,79.12,41,79.05s-14.33-2.22-14.33-2.22-1,20.84-4,26.59c0,0-14.91,5.38-22.63,1A28.57,28.57,0,0,0,4.68,84.19C3,71.59,6.31,54,18,60.05Z" transform="translate(0 0)"/><path class="cls-19" d="M24.59,39.38A15.25,15.25,0,0,0,26,43.47,12.23,12.23,0,0,0,28.6,46l-1.43,1.82a6.55,6.55,0,0,1-5.4,7.53h-.28l-.68,6.28L13.16,59.1l-.3-4.32a5.16,5.16,0,0,0,1.32-2.72,3.62,3.62,0,0,1-1-3.22c.49-1.74,2-3.06,2.76-2.42a3.3,3.3,0,0,1,.8,1.93h1s-.17-2.88.42-4.09A9.56,9.56,0,0,1,24.59,39.38Z" transform="translate(0 0)"/><path class="cls-20" d="M20.81,61.71l.68-6.28a6.55,6.55,0,0,0,5.72-7.29h0v-.28L28.6,46A12.23,12.23,0,0,1,26,43.47a15.49,15.49,0,0,1-1.36-4.09c-.31.07-.58.17-.87.26a22.63,22.63,0,0,1,1.33,5.57c.25,3.25-.27,6.92-4.82,9.68-1.54.94-2.1,3.49-2.27,5.87Z" transform="translate(0 0)"/><path class="cls-21" d="M18.29,124.72c-5-1.14-9.79-4.15-13.46-7.08-1.2-4.54-2.74-10.74-3.18-12.48a14.21,14.21,0,0,0,1.8.52c1.91,3,6,9.21,9.78,12.42a35.09,35.09,0,0,1,5,5.75Z" transform="translate(0 0)"/><path class="cls-10" d="M79.74,19.43,51.79,9.3,53.21,13a6.44,6.44,0,0,0,3.6,3.67l18,6.52c1.57.57,3,.16,3.6-1Z" transform="translate(0 0)"/><path class="cls-22" d="M64.48,93.06" transform="translate(0 0)"/><path class="cls-12" d="M53.4,97.91A14.46,14.46,0,0,0,56.19,106l7.56-4.31V91.33C58,89.25,53.4,92.2,53.4,97.91Z" transform="translate(0 0)"/><path class="cls-14" d="M72.5,110.38a7.63,7.63,0,0,0,1.59-4.93c0-5.72-4.63-12-10.34-14.12v10.35Z" transform="translate(0 0)"/><path class="cls-15" d="M56.19,106a16.28,16.28,0,0,0,7.56,6c3.69,1.34,6.92.59,8.75-1.65l-8.75-8.7Z" transform="translate(0 0)"/><path class="cls-19" d="M50.1,48.09s3.33-9.16,3.33-11.66,1.89-.3,1.82,1.59a28.45,28.45,0,0,1-.53,4s2.57.23,2.57,1.44-.83,5.45-2,6.13Z" transform="translate(0 0)"/></svg>