<svg version="1.1" id="Layer_1" xmlns="http://www.w3.org/2000/svg" x="0" y="0" viewBox="0 0 1000 1000" xml:space="preserve"><style>.st0{fill:#fff}.st1{fill:#141b23}.st2{fill:#b05328}.st3{fill:#af4b78}.st4{fill:#f191b9}.st5{fill:#3f4a5c}.st6{fill:#08090b}.st7{fill:#303948}.st8{fill:#d2e9f7}.st9{fill:#fefefe}.st10{fill:#3e495c}.st11{fill:#313b47}.st12{fill:#fdc541}.st13{fill:#def1fb}.st14{fill:#faae2d}.st15{fill:#191e26}.st17{fill:#2a89c8}.st20{fill:#f8a625}.st21{fill:#fdd676}</style><path class="st0" d="M468.1 21.4c-7.2 4.2-12.2 10.7-13.5 18.8-1.7 11.3-2.8 22.7-2.8 34.1 0 7.4 2.2 14.9 3.5 22.7-1.1-.2-2-.4-2.8-.6-46.5-10.7-90.4 12.5-107.8 57-.7 2-2.6 3.9-4.4 5.2-12 8.9-24.5 17-36 26.4-50.7 42.1-88.8 94.3-120.5 151.5-1.5 2.8-3.7 5.2-6.1 7.2-10.7 9-22.1 17.2-32.5 26.6-44.8 40.8-78.6 90.2-107.8 142.8-16.8 30.3-28.8 62.7-34 97.2H1.9M366 95.6c1.8-1.3 3.1-2 4.4-3 12.2-8.5 25.1-15.1 39.9-18.3 7.4-1.5 14.8-3 22.1-4.4 3.1-.6 4.1-1.8 3-5.2-2-6.3-3.7-12.7-5.4-19.2-1.1-4.4-1.1-11.1-3.9-12.5-3.1-1.7-8.7 1.7-13.3 2.2-22.7 3.3-35.1 19-44.7 37.6-3.4 6.9-4.5 14.3-2.1 22.8z"/><path class="st1" d="M571.2 94.8c43.4-8.7 86 15.1 102.2 56.5.7 1.8 2 4.1 3.7 5.2 46.3 30.1 82.5 70.1 113.7 115.1 5.4 7.8 5.2 7.8 13.7 3.9 68.6-30.6 126-75.5 169.4-137.5 3.5-5 6.6-4.8 10.9-1.7 8.7 6.5 10.7 16.2 12.7 26 .7 3.7.7 7.6 1.1 11.4v6.6c.2 2.2.6 4.2.7 6.5v15.1c-.2 1.7-.6 3.1-.7 4.8v6.5c-2.4 37.5-13.5 72.9-25.3 108.1-17.7 53.5-48.3 98.7-87.5 138.8-2.4 2.4-3 4.2-2 7.8 11.3 37.1 18.6 74.9 22.5 113.5 6.5 66.2 2.4 131.4-23.1 193.9-14.8 36.2-36.9 67-66.4 92.4l-2.2 2.2c-1.8 1.5-3.9 2.8-5.7 4.2-4.2 3-8.5 6.1-12.7 9-1.5 1.1-3 2.2-4.2 3.3-1.5.7-3.1 1.7-4.6 2.4-19.4 9.4-38.2 19.9-58.1 27.5-19.2 7.4-39.5 11.6-59.2 17.3-6.3 1.3-12.4 2.4-18.6 3.7-5 .9-10 1.7-14.9 2.6-1.1 0-2-.2-3.1 0-24.9 2.4-49.8 5.7-74.7 7.2-42.1 2.6-84.3 1.7-126.4-1.8-18.5-1.5-36.9-3.9-55.4-5.7-4.6-1.1-9.2-2.2-13.8-3.1-5-.7-10-1.5-14.9-2.2-1.7-.6-3.3-1.1-5-1.5-34.9-7.9-69-18.1-100.9-34.7-7.4-3.9-14.6-7.8-21.8-11.6-1.1-.7-2.4-1.7-3.5-2.4-5-3.3-10-6.6-15.1-10-1.3-1.3-2.6-2.6-4.1-3.9-17.7-14-33.4-29.9-46.5-48.2-34.5-48.3-48.3-103.3-50.6-161.6-.7-21.4-.2-42.6-.2-63.8 0 0-1.5.7-3 1.5C72 611 48 626.3 25.1 643.7c-10 7.6-14.2 6.5-19.4-5.2-.9-2.2-1.3-4.8-2-7.2-.2-5.2-.6-10.3-.7-15.7.2-1.7.4-3.3.7-5 5.2-34.5 17-66.8 34-97.2 29.2-52.6 62.9-101.9 107.8-142.8 10.3-9.4 21.8-17.7 32.5-26.6 2.4-2 4.6-4.4 6.1-7.2 31.7-57.2 69.8-109.4 120.5-151.5 11.4-9.4 24-17.5 36-26.4 1.8-1.3 3.7-3.1 4.4-5.2 17.5-44.7 61.3-67.9 107.8-57 .9.2 1.7.4 2.8.6-1.3-7.8-3.5-15.1-3.5-22.7 0-11.4.9-22.9 2.8-34.1 1.3-8.1 6.1-14.6 13.5-18.8h5.4c4.1 5.4 9.2 10.3 12.2 16.2 3.5 6.6 5.4 14.2 7.4 21.6 2 7.2 3.1 14.6 4.8 22.7 1.1-1.5 2-2.8 3-3.9 8.1-9.6 16.1-19.6 24.5-28.8 4.2-4.6 10.3-8.9 16.8-5 6.8 4.1 4.8 11.3 3.3 17.3-1.3 5-3.5 9.8-5.2 14.6 5.5-2 11.1-4.2 16.8-5.9 3.1-.9 6.6-.9 10.1-.7 5.2.4 7.2 3.7 3.9 7.8-5.2 6.1-11.1 11.6-17 17.3-3 2.8-6.3 5.4-9.4 7.9-2.2 1.7-4.6 3.5-6.8 5.2.2.4.4.6.6.9 2.2-1.5 4.6-3 6.8-4.4m111.3 130.4c.4-.6.9-1.3 1.3-1.8 17.3-24.2 20.1-50.6 10.7-78.1-12-35.6-51.1-60.7-85.8-55.5-2.4.4-4.6.6-7 .9-.6 0-1.1-.2-1.7 0-27.1 4.6-47.1 19.6-60.5 43.4-.6.9-.7 2.6-.4 3.7 1.3 3.5 2.8 7 4.2 10.5 4.1 14.8 4.6 29.7 2.4 44.8-1.8 5.5-3.5 11.1-5.4 16.6-1.8-.2-3.9-.2-5.7-.4.6-1.7 1.3-3.3 1.8-5 16.4-46.3-9-97.4-55-110.2-.4-.2-.7-.6-1.1-.7-51.3-16.2-106.7 22.3-109.1 76-1.5 34.7 13.1 61.1 42.4 79.5-2.4.9-5 1.8-7.4 2.6-16.2-11.6-28.6-26.2-35.8-45.6-17 12.9-32.3 26.9-45.9 42.6-22.9 26.4-43 54.6-60.2 85.3-30.4 54.1-52.8 111.3-67.9 171.2-8.1 32.3-13.8 65-15.9 98.2-3 46.1-.9 91.9 12.7 136.7 16.1 52.2 46.3 93.9 91.9 123.8 25.5 16.8 53.7 27.7 82.9 36 40.6 11.6 81.9 17 124 18.8 55 2.4 109.8 1.3 164-9.2 18.6-3.7 36.7-9.8 55-14.6 25.1-7.2 47.8-19 69-34 36.5-25.6 61.8-60.2 77.5-101.5 15.3-40 21.4-82.1 21.2-124.9 0-19-1.1-38-2.6-57-3.9-45.2-14.2-89.3-28.2-132.5-15.3-47.6-36.7-92.4-63.1-135.1-20.5-33.2-43.7-64.4-72-91.5-4.2-4.1-9-7.4-14-11.3-.7 2.4-1.3 3.7-1.7 5.2-8.1 15.7-19 28.8-33.6 38.6-2.2-.9-4.4-1.7-6.5-2.6 9.6-6.1 19.2-12.8 25.5-22.9zm-182-130.1c5.4 5.4 11.6 4.8 18.6 2.6-1.8-11.8-3.1-23.6-5.4-35.2-2.4-13.5-4.8-27.3-12.4-39.1-1.3-2.2-4.2-5-6.1-4.8-2.2.2-4.1 3.5-6.3 5.4-1.5 3.1-3.5 6.1-4.2 9.4-3.3 13.3-2.4 26.6.4 39.7 1.9 9.3 2.5 20.2 15.4 22zM165.1 371.1c-6.1 5.2-12.5 10.1-18.5 15.7-30.6 28.8-56.8 61.2-77.8 97.8-23.4 40.8-42.3 83.6-53 129.5-1.5 6.5-4.2 13.3-.6 20.1 3.1-.7 7-.6 9.6-2.4 23.8-17.3 48.9-32.7 75.3-45.9 1.7-.7 3.3-3.1 3.5-5 1.5-8.5 2.4-17.2 3.7-25.6 6.5-39.5 17-78.1 30.4-115.9 2.6-7 4.6-14.2 6.8-21.4 4.2-9.2 8.5-18.3 12.5-27.5 2.9-6.5 5.5-13 8.1-19.4.2-.2.2-.4.4-.6-.2.4-.4.6-.4.6zm227.5 560c.6.2 1.1.6 1.7.7 10.5 1.3 20.9 2.6 31.4 3.5 9.2.9 18.6 1.5 27.9 2.2-6.1-1.5-12.4-1.7-18.6-2.4-13.8-1.5-27.7-3.3-41.3-5-29.5-4.8-58.7-11.4-86.5-22.3-36.9-14.4-70.3-34-97.4-63.7s-44.3-64.4-54.1-103c-8.5-33.2-12.4-67.2-10-101.5 1.5-20.1 2.2-40.2 4.6-60.2 4.6-37.6 13.7-74.4 25.5-110.3 16.6-50.9 38.2-99.5 66.2-145.2 16.8-27.5 35.6-53.5 57.9-76.8 12.5-13.1 26.6-24.5 39.9-36.9 1.1-1.1 1.8-3.1 1.8-4.8-.4-7-1.3-14-2-21v-10.5c-1.1.2-1.5.2-1.8.4-1.1.6-2 1.1-3 1.8-31.6 21.6-58.5 48.3-82.7 77.9-34.5 42.4-61.4 89.5-83.6 139.5-18.6 41.7-33.8 84.9-42.6 129.7-5.5 27.7-9.4 55.9-12.5 84-1.8 16.1-.9 32.5-.2 48.7.6 15.1 1.5 30.3 3.7 45.2 4.4 29.7 12.9 58.3 26.8 85.1 12.5 24.2 28.6 45.8 48.7 64 6.8 6.1 14.4 11.4 21.8 17 10 6.5 19.6 13.7 30.1 19.2 30.8 17 63.8 28 98.2 35.4 16.2 3.8 33.3 6.4 50.1 9.3zm482.7-494.3c.7 3.1 1.5 6.3 2.2 9.4.9 3.7 2.4 3.5 4.6.9 5.9-6.5 12-12.9 17.9-19.6 25.3-28.8 45.2-61.1 59.4-96.7 21.4-53.7 30.3-109.8 27.3-167.6-.4-6.1-3.3-12.2-5.2-18.1-2.4 1.7-5.5 3-7.2 5.2-14.9 20.5-31.9 39.3-50.6 56.5-8.9 8.1-18.1 16.1-27.5 23.4-27.3 21.8-57.4 39.3-88.9 53.7-4.8 2.2-5.4 3.9-2.4 8.5 12.7 21.4 26 42.6 37.1 64.8 9.8 19.4 17 40 25.5 60.2 2.7 6.6 5.3 13.1 7.8 19.4zM587.7 935.6c3.1-.4 6.5-.4 9.6-.9 24.7-3.9 49.5-6.8 74-11.8 43.4-8.7 84-24.5 120.3-50 30.4-21.4 54.3-48.7 71.4-81.7 22.7-43.7 32.3-90.8 34.3-139.5 1.5-36.4-.7-72.7-6.8-108.7-7.4-44.8-19.7-88.6-36.5-130.8-14.2-35.8-30.8-70.5-51.3-103.2-29.3-47.1-62.7-90.6-106.5-125.3-5.4-4.2-10.9-8.1-15.7-11.6-1.3 11.6-2.6 22.9-3.5 34-.2 2 .7 4.8 2 6.3 11.1 11.1 22.9 21.6 33.6 33.2 26 27.7 46.7 59.2 65.3 92.1 21.2 36.9 38.2 75.8 51.5 116.3 12.2 36.5 21.4 73.6 26.4 112 4.1 31.9 8.1 63.7 5 96-2.2 23.4-4.6 46.9-9 69.9-6.6 34-19.6 65.7-39.7 94.3-15.5 22.1-34.3 40.8-56.8 55.7-24.2 16.1-50.4 27.5-78.1 35.8-29.7 8.9-60 14.4-90.8 17.3-10.5.7-21.2 1.7-31.7 2.4 5.2.2 10.3.4 15.3.2 6-.8 11.8-1.5 17.7-2zM499.6 92.1c.6 5.5.7 9.4 1.3 13.1.2.9 1.1 2.4 1.8 2.6 3.9.6 7.9 1.1 10.7-3.1 7.2-11.1 14.8-21.6 21.2-33 3.1-5.4 4.6-11.8 5.7-17.9.9-5-2.8-7-7.2-4.4-2.2 1.3-4.6 2.8-6.3 4.8-8.3 10.1-16.4 20.3-24.4 30.6-1.7 2.5-2.2 5.8-2.8 7.3zm21.8 15.3c7.4 2 41.5-25.1 42.3-33.6-23.5-.7-31.2 18.5-42.3 33.6zm-25.3 13.5c4.6 6.1 8.9 11.6 13.1 17.3 4.2-5.7 8.3-11.4 12.7-17.3h-25.8z"/><path class="st2" d="M376.7 939.8c-40.2 14.2-80.6 27.5-122.3 36.5-1.3.2-2.8.6-4.1.7h-.3c-2 .4-4.1.6-6.1.9h-7c-4.2-3.5-8.5-7.2-12.9-10.5-1.5-1.1-3.3-2-5.2-2.2-11.4-1.3-18.8-8.1-24.2-17.3-4.1-6.8-7.9-13.8-11.6-20.9-12.7-24.5-8.5-41.5 14.6-56.7 1.3 1.3 2.6 2.6 4.1 3.9-1.1 1.1-2.4 2-3.5 3.1-4.1 4.6-7.9 9-11.8 13.7-5 7.4-4.8 20.9.7 27.1 1.1-3.7 2-7.4 3-10.9 5.9-11.1 14.8-18.8 26.8-23.1 1.1.7 2.4 1.7 3.5 2.4-1.5.9-2.8 2-4.2 3-9.4 5.5-18.6 11.4-21.4 23.1-5.2 14.2 5.4 35.2 18.1 38 1.3-9 2.8-18.1 4.1-27.1 6.6-10.5 14.4-19 28-19.4-11.4 6.6-22 14-22.9 29 0 3.5-.4 7 0 10.5 2.2 16.2 16.1 26 31.7 22.5 12.9-2.8 25.8-5.9 38.6-9 21-5.2 41.9-10.5 62.7-16.1 2.8-.7 5.2-2.8 7.9-4.1 4.3.7 9.1 1.8 13.7 2.9zM773.9 973.4c-24.5 4.4-121.1-27.9-137.5-33.2 5-.9 10-1.7 14.9-2.6 1.1.6 2.2 1.5 3.3 1.8 35.6 9 71.2 18.5 107 26.8 13.5 3.1 26.6-7.2 29-20.9 5.5-20.9-6.1-32.7-22.7-42.1 3.3.2 6.5.4 9 1.7 14.4 6.6 21.8 18.3 22.7 34-.2 3.9-.4 7.8-.6 12.4 10-3.7 15.5-10.3 18.6-19.4 3.7-10 3.9-20.3-3.3-28.2-6.3-6.8-14.8-11.6-22.3-17.2 1.5-1.1 3-2.2 4.2-3.3 5.5 3.5 11.3 6.5 16.2 10.3 8.1 6.1 11.6 14.9 13.7 25.1 10.1-15.3.2-40-17.2-44.7 1.8-1.5 3.9-2.8 5.7-4.2 13.1 7.8 23.4 17.7 22.1 34.3-.6 7.2-3.1 14.4-5.9 21-3.7 8.3-8.5 16.1-13.1 24-5.2 8.9-12.7 14.6-23.1 16.1-2 .4-4.2 1.3-5.9 2.6"/><path class="st4" d="M998.8 213.3v-6.5"/><path class="st6" d="M366 95.6c-2.4-8.5-1.3-15.9 2.2-22.7 9.6-18.6 22.1-34.3 44.7-37.6 4.6-.7 10.1-3.9 13.3-2.2 2.8 1.5 2.6 8.1 3.9 12.5 1.7 6.5 3.3 12.9 5.4 19.2 1.1 3.3.2 4.6-3 5.2-7.4 1.5-14.8 3-22.1 4.4-14.8 3-27.7 9.8-39.9 18.3-1.3.7-2.6 1.6-4.5 2.9zM644.7 90.6c-20.9-12.5-43.5-9.6-65.9-7.6.9-12.9 1.8-24.9 2.8-36.9 0-.7 1.7-2.2 2.2-2 22.9 4.1 45.8 8.3 57.2 32.3 1.8 3.9 3.1 8.1 4.6 12.2-.2.7-.6 1.3-.9 2z"/><path class="st0" d="M671.6 222.2c.6-1.3.9-2.8 1.7-5.2 5 4.1 9.8 7.4 14 11.3 28.2 27.1 51.5 58.3 72 91.5 26.2 42.6 47.6 87.5 63.1 135.1 14 43.2 24.4 87.1 28.2 132.5 1.7 19 2.6 38 2.6 57 0 42.8-6.1 84.7-21.2 124.9-15.7 41.3-41 75.8-77.5 101.5-21.2 14.9-43.9 26.8-69 34-2 .2-4.1 0-6.1.4-32.1 7.9-64.8 13.1-97.8 14.2-25.1.7-50.2.6-75.1-.9-26.8-1.5-53.5-4.1-80.1-8.1-32.8-5-65.3-11.8-96.7-23.3-36.7-13.5-69.6-32.8-96-62.4-16.6-18.5-28.8-39.5-38-62.2-11.8-28.8-17.7-59.2-19.4-90.1-1.7-31.7-1.1-63.7 4.4-95 3.9-22.3 8.7-44.7 14-66.8 10-40.4 24.7-79.2 42.8-116.8s39.9-73.1 66.1-105.7c.6-.9 1.1-1.7 1.8-2.6.4-.6.6-1.1.9-1.7.2-.4.4-.7.7-1.1 1.5-.9 3-1.7 4.2-2.8 4.6-4.2 9.2-8.9 13.8-13.1.9 2.2 2 4.2 2.8 6.5 5 14.8 14.4 26.4 26 36.2 7.2 6.1 12.7 13.3 17.3 21.4 9.6 16.6 18.6 33.6 30.4 48.5 11.8 15.3 25.8 29.2 40 42.4 19.2 17.9 42.6 25.5 68.6 19.6 21.6-4.8 41.5-14 57.4-30.4 2-2.2 4.6-3.7 8.1-6.5-3.1 9-5.9 16.4-8.1 23.3 6.1.9 11.3 1.7 16.8 2.4 2.8-5.9-1.3-8.3-6.3-10 1.5-4.6 3.3-8.9 4.1-13.3.4-2.8-.2-6.8-1.8-8.1-2-1.5-6.3-1.5-8.9-.6-3.5 1.3-6.5 4.1-9.6 6.1-3.3-6.3-8.7-10.3-15.3-12.5-.9-7.8-1.8-15.3-2.8-23.1 15.7-9 31-19.2 47.4-27.1 16.8-8.3 34.7-14.4 52-21.6 19.2-7.9 25.5-22.9 17.7-42.1 11.1-10.7 19.2-22.7 18.8-39.9-7.6 11.4-14.8 22-21.8 32.5-4.2-2.4-8.3-4.8-12.5-7.2 5-5.4 10.3-10.3 14.8-16.2 5.2-7.4 11-15 11.5-24.9z"/><path class="st5" d="M586.7 934.6c30.8-3 61.3-8.3 90.8-17.3 27.7-8.3 53.9-19.7 78.1-35.8 22.5-14.9 41.3-33.6 56.8-55.7 20.1-28.6 33-60.3 39.7-94.3 4.4-23.1 6.8-46.5 9-69.9 3.1-32.1-.9-64-5-96-5-38.2-14.4-75.5-26.4-112-13.3-40.4-30.3-79.3-51.5-116.3-18.8-32.8-39.5-64.4-65.3-92.1-10.7-11.4-22.5-22-33.6-33.2-1.5-1.5-2.2-4.2-2-6.3.9-11.3 2.2-22.3 3.5-34 4.8 3.5 10.3 7.4 15.7 11.6 43.7 34.7 77.1 78.2 106.5 125.3 20.5 32.8 37.1 67.4 51.3 103.2 16.8 42.3 29 85.8 36.5 130.8 5.9 36 8.3 72.3 6.8 108.7-2 48.7-11.6 95.8-34.3 139.5-17.2 33-41 60.3-71.4 81.7-36.4 25.5-77.1 41.3-120.3 50-24.5 5-49.3 7.9-74 11.8-3.1.6-6.5.6-9.6.9-.7 0-.9-.2-1.3-.6z"/><path class="st7" d="M875.3 436.8c-2.6-6.5-5.2-12.7-7.9-19.2-8.3-20.1-15.7-40.8-25.5-60.2-11.1-22.1-24.4-43.4-37.1-64.8-2.8-4.8-2.4-6.3 2.4-8.5 31.7-14.6 61.6-32.1 88.9-53.7 9.4-7.6 18.6-15.3 27.5-23.4 18.6-17.2 35.6-35.8 50.6-56.5 1.7-2.2 4.8-3.5 7.2-5.2.4 5.5.9 11.1.7 16.8-.4 10.3-.6 20.5-1.8 30.8-1.8 16.6-3.7 33.2-7 49.6-7.4 36.4-24.5 69.2-39.5 102.8-10.7 24.4-24.5 46.9-40.4 68.3-5.1 8-11.8 15.4-18.1 23.2z"/><path class="st8" d="M303.3 287.9c-26.2 32.7-48.2 68.1-66.1 105.7s-32.8 76.4-42.8 116.8c-5.4 22.1-10.1 44.5-14 66.8-5.4 31.4-6.1 63.3-4.4 95 1.7 31 7.4 61.3 19.4 90.1 9.4 22.7 21.6 43.7 38 62.2 26.4 29.7 59.2 48.9 96 62.4 31.4 11.6 63.8 18.5 96.7 23.3 26.6 3.9 53.3 6.5 80.1 8.1 24.9 1.5 50.2 1.7 75.1.9 33-.9 65.7-6.3 97.8-14.2 2-.6 4.1-.4 6.1-.4-18.3 5-36.4 11.1-55 14.6-54.3 10.5-109.1 11.8-164 9.2-41.9-1.8-83.4-7.4-124-18.8-29.2-8.3-57.4-19.4-82.9-36-45.6-30.1-75.8-71.6-91.9-123.8-13.7-44.8-15.7-90.4-12.7-136.7 2.2-33.2 7.8-65.9 15.9-98.2 15.1-60 37.5-117.2 67.9-171.2 17.2-30.4 37.3-58.9 60.2-85.3 13.7-15.7 29-29.5 45.9-42.6 7.2 19.4 19.7 34 35.8 45.6-2.4.9-5 1.7-7.4 2.6-5.5-6.3-11.4-12.2-16.4-18.6-5-6.3-5-6.6-10.5-.9-.7.7-1.5 1.8-2.4 2.6-7.9 3.1-16.1 5.5-23.6 9.6-9.4 5-15.7 12.9-17.7 23.6 0 2.4.7 5 .9 7.6z"/><path class="st9" d="M520.1 202.6c2.2-15.1 1.7-30.1-2.4-44.8.9-1.5 2-2.8 2.6-4.4 7.8-22.1 22.3-38.2 43.9-47.8 3.9-1.7 7.9-3.5 11.8-5.4 2.4-.4 4.6-.6 7-.9 34.5-5 73.6 19.9 85.8 55.5 9.4 27.7 6.5 54.1-10.7 78.1-.4.6-.9 1.3-1.3 1.8-3.1 2.4-6.1 5-9.4 6.8-8.5 4.6-17.3 9-26 13.5-.9-.2-1.7-.4-2.6-.6-29.3-9.6-58.7-19.2-88-29-3.5-7.3-7.2-15-10.7-22.8zm68.5-15.7c0-13.1-9.8-23.4-22.9-23.6-13.1-.2-23.8 10.1-23.8 23.3 0 12.5 10.5 23.3 22.9 23.4 13.1 0 23.6-10.3 23.8-23.1z"/><path class="st0" d="M455.9 103.7c45.9 12.7 71.4 63.8 55 110.2-.6 1.7-1.3 3.3-1.8 5-1.3.6-2.6 1.3-4.1 1.7-18.5 5.7-36.9 10.9-55.2 17-16.4 5.4-32.7 11.4-49.1 17.3-5-3.9-10.1-7.4-14.9-11.4-28.2-24.5-36.7-67.4-17.7-100.2 15.1-26 38-39.1 67.9-40.2 6.6-.3 13.3.2 19.9.6zm-35.1 84.7c0 12.7 10.9 23.3 23.6 23.3 12.4-.2 23.1-10.9 23.1-23.3 0-12.9-10.7-23.6-23.6-23.4-12.7 0-23.1 10.5-23.1 23.4z"/><path class="st10" d="M339.5 184.3c.7 7 1.5 14 2 21 .2 1.5-.7 3.7-1.8 4.8-13.3 12.4-27.3 23.8-39.9 36.9-22.3 23.3-41 49.3-57.9 76.8-28 45.8-49.6 94.3-66.2 145.2-11.8 36-20.9 72.7-25.5 110.3-2.4 19.9-3.1 40-4.6 60.2-2.4 34.3 1.5 68.3 10 101.5 9.8 38.6 26.9 73.3 54.1 103s60.5 49.3 97.4 63.7c27.9 10.9 57 17.5 86.5 22.3l-.9.9c-17-3-34-5.5-50.7-9-34.3-7.4-67.4-18.6-98.2-35.4-10.3-5.7-20.1-12.7-30.1-19.2-3-4.4-5.7-9-8.9-13.3-17.7-24.4-33-50-45.2-77.7-22-50.4-32.3-103.3-33.6-158.1-.4-12 .4-24.2 1.8-36.2 2.6-21.2 4.4-42.8 9.8-63.3 7.9-30.3 18.3-60 28.6-89.5 9.4-27.1 19.4-54.1 33.6-79.2 23.4-41.3 50.2-79.9 84.1-113.3 5.9-5.7 11.3-12 17.2-17.9 7.4-7.4 14.6-14.9 22.1-22.1 5.2-4.6 10.9-8.3 16.3-12.4z"/><path class="st11" d="M339.5 184.3c-5.4 4.1-11.1 7.8-16.1 12.2-7.8 7-14.9 14.6-22.1 22.1-5.7 5.9-11.3 12.2-17.2 17.9-34 33.4-60.7 72.2-84.1 113.3-14.2 25.1-24.2 52-33.6 79.2-10.3 29.5-20.7 59.2-28.6 89.5-5.4 20.5-7.2 42.1-9.8 63.3-1.5 12-2 24-1.8 36.2 1.3 54.8 11.6 107.6 33.6 158.1 12 27.7 27.3 53.5 45.2 77.7 3.1 4.2 5.9 8.9 8.9 13.3-7.2-5.7-14.9-10.9-21.8-17-20.3-18.3-36.2-39.9-48.7-64-13.8-26.8-22.3-55.4-26.8-85.1-2.2-14.9-3.1-30.1-3.7-45.2-.6-16.2-1.5-32.7.2-48.7 3.1-28 7-56.3 12.5-84 8.9-44.8 24-88 42.6-129.7 22.1-49.8 49.1-97.1 83.6-139.5 24-29.5 50.9-56.3 82.7-77.9.9-.7 2-1.3 3-1.8.4-.2.7-.2 1.8-.4.2 3.7.2 7.2.2 10.5z"/><path class="st7" d="M144.8 418.1c-2.2 7.2-4.2 14.4-6.8 21.4-13.5 37.8-24 76.2-30.4 115.9-1.5 8.5-2.2 17.2-3.7 25.6-.4 1.8-1.8 4.2-3.5 5-26.5 13.2-51.6 28.5-75.4 46-2.4 1.8-6.3 1.7-9.6 2.4 1.8-6.1 3.3-12.2 5.4-18.1 9.4-29 19.2-58.1 35.1-84.1 12.4-20.3 26.4-39.5 40.6-58.7 8.5-11.4 18.6-22 28-32.7 6.6-7.7 13.5-15.1 20.3-22.7z"/><path class="st2" d="M400.7 254.8c16.4-5.7 32.7-12 49.1-17.3 18.3-5.9 36.9-11.3 55.2-17 1.5-.4 2.8-1.1 4.1-1.7 1.8.2 3.9.2 5.7.4 5.4 2.2 10.7 4.4 16.1 6.6 29.3 9.6 58.7 19.2 88 29 .7.2 1.7.4 2.6.6 3.3.9 6.6 2 10 3 2.2.9 4.4 1.7 6.6 2.6 2.4.7 4.6 1.7 7 2.4 4.2 2.4 8.3 4.8 12.5 7.2.9 2.4 1.8 4.8 2.8 7.4 7.8 19.2 1.5 34.3-17.7 42.1-17.3 7.2-35.2 13.3-52 21.6-16.2 7.9-31.6 17.9-47.4 27.1-2.4 1.3-4.8 2.4-7.2 3.7-13.3 4.1-26.8 5.7-40.6 3-9.4-4.4-18.8-8.7-28-13.5-12.5-6.5-25.1-13.5-37.6-20.3-19-7.8-37.8-15.3-56.8-23.1-.4-.4-.9-.6-1.3-.9-4.1-3.9-8.1-7.8-12-11.8-.4-.6-.6-1.1-.9-1.7-.4-1.7-.6-3.3-1.1-5-3.5-12.9 3.7-29 15.3-34.9 2.4-.9 5-1.7 7.4-2.6 2.4-.9 5-1.8 7.4-2.6 4.5-1.5 8.8-3 12.8-4.3zm97.5-19.2c-9 2.2-18.5 3.9-27.3 6.8-19.4 6.3-38.8 13.1-58.1 19.6-10.3 3.5-20.7 6.6-31 10.1-9.6 3.1-12.9 10.7-13.8 20.1-.9 9.2 5 14 12.2 17 9.4 3.9 19.2 6.6 28.8 9.8 10.1 5 20.5 10 30.4 15.1 9 4.8 18.3 9.6 26.9 14.9 11.8 7.4 23.8 14.4 38 16.2 15.5 2 29.2-4.1 42.3-11.4 12.4-6.8 24.4-14.2 36.9-20.7 15.3-8.1 31-15.7 48-19.9 4.8-1.3 9.6-3.9 13.8-6.6 10-6.6 10.3-21.8.9-29.7-3-1.7-5.5-4.1-8.7-5.2-22.1-7.9-44.3-15.9-66.8-23.1C552 242.8 533 238 514 232.9c-2-.6-4.2-.2-6.5-.2-2.4.9-4.8 1.8-7 2.6-.7-.2-1.6.2-2.3.3z"/><path class="st12" d="M799.7 938.9c-.7-15.9-8.3-27.3-22.7-34-2.6-1.3-5.7-1.5-9-1.7 16.6 9.4 28.2 21 22.7 42.1-1.7.2-3.5.2-5.2.6-9 1.5-17.9 3.9-26.9 4.4-18.1 1.1-36.4.6-53.9-4.4-11.8-3.3-23.3-7.9-34.9-12 19.7-5.7 40.2-10 59.2-17.3 19.9-7.8 38.8-18.3 58.1-27.5 1.7-.7 3.1-1.7 4.6-2.4 7.6 5.7 16.1 10.3 22.3 17.2 7.2 7.9 7 18.3 3.3 28.2-3.1 1.1-6.3 1.8-9.4 3.1-2.5.9-5.3 2.4-8.2 3.7zM194.4 912.3c2.8-11.6 12-17.5 21.4-23.1 1.5-.9 2.8-1.8 4.2-3 7.2 3.9 14.4 7.9 21.8 11.6 31.9 16.6 66.1 26.8 100.9 34.7 1.7.4 3.3.9 5 1.5-1.7.7-3.1 1.7-4.8 1.8-5.7.9-11.4 1.3-17 2.4-20.1 3.9-40 8.1-60.5 7.4-15.3-.6-30.8-.2-42.4-13.1-.2-.2-.9-.2-1.3-.4.9-14.9 11.4-22.1 22.9-29-13.5.4-21.4 8.9-28 19.4-2.2-.4-4.8-.4-6.8-1.3-5.2-2.2-10.2-5.6-15.4-8.9z"/><path class="st10" d="M875.3 436.8c6.3-7.8 12.9-15.1 18.8-23.3 15.7-21.4 29.5-44.1 40.4-68.3 14.8-33.6 32.1-66.4 39.5-102.8 3.3-16.2 5-33 7-49.6 1.1-10.1 1.5-20.5 1.8-30.8.2-5.5-.6-11.1-.7-16.8 1.8 6.1 4.8 12 5.2 18.1 3 57.8-5.9 113.7-27.3 167.6-14.2 35.6-34.1 67.7-59.4 96.7-5.7 6.6-12 13.1-17.9 19.6-2.2 2.4-3.9 2.6-4.6-.9-1.3-3.3-2-6.4-2.8-9.5zM144.8 418.1c-6.8 7.6-13.7 14.9-20.3 22.5-9.4 10.9-19.6 21.2-28 32.7-14.2 19-28.2 38.4-40.6 58.7-15.9 26.2-25.6 55.2-35.1 84.1-1.8 5.9-3.5 12-5.4 18.1-3.7-6.8-1.1-13.7.6-20.1 10.5-45.9 29.5-88.8 53-129.5 21-36.5 47.1-69 77.9-97.8 5.9-5.5 12.4-10.3 18.5-15.7l.2.2c-2.6 6.5-5.2 12.9-7.9 19.4-4.4 9.2-8.7 18.4-12.9 27.4z"/><path class="st13" d="M400.7 254.8c-4.2 1.3-8.5 2.8-12.7 4.1-29.3-18.5-43.9-44.8-42.4-79.5 2.4-53.7 57.8-92.4 109.1-76.2.4.2.7.4 1.1.7-6.6-.2-13.3-.9-19.7-.7-29.9.9-52.8 14.2-67.9 40.2-19.2 33-10.5 75.7 17.7 100.2 4.7 3.8 9.8 7.4 14.8 11.2z"/><path class="st14" d="M221.7 932.8c.4.2 1.1 0 1.3.4 11.4 12.9 26.9 12.5 42.4 13.1 20.7.7 40.6-3.5 60.5-7.4 5.5-1.1 11.3-1.5 17-2.4 1.7-.2 3.1-1.3 4.8-1.8 5 .7 10 1.5 14.9 2.2-2.6 1.5-5 3.3-7.9 4.1-20.9 5.5-41.9 10.9-62.7 16.1-12.9 3.1-25.6 6.3-38.6 9-15.7 3.5-29.3-6.5-31.7-22.5-.3-3.8 0-7.3 0-10.8zM670 933.9c11.6 4.1 23.1 8.7 34.9 12 17.5 5 35.8 5.5 53.9 4.4 9-.6 17.9-3 26.9-4.4 1.7-.4 3.5-.4 5.2-.6-2.4 13.7-15.5 24-29 20.9-35.8-8.5-71.4-17.7-107-26.8-1.3-.4-2.2-1.3-3.3-1.8 6-1.3 12.1-2.6 18.4-3.7z"/><path class="st11" d="M463.5 33.6c2-1.8 3.9-5.2 6.3-5.4 1.8-.2 4.8 2.6 6.1 4.8 7.6 12 10 25.6 12.4 39.1 2.2 11.6 3.5 23.4 5.4 35.2-6.8 2.2-13.3 2.8-18.6-2.6.2-1.1.6-2.2.4-3.1-1.3-10.7-2-21.6-3.9-32.1-2.2-12.1-5.4-23.9-8.1-35.9zM499.6 92.1c.6-1.5 1.1-4.8 3-7.2 7.9-10.3 16.1-20.7 24.4-30.6 1.7-2 4.1-3.5 6.3-4.8 4.4-2.6 8.1-.6 7.2 4.4-1.1 6.1-2.8 12.5-5.7 17.9-6.5 11.3-14.2 22-21.2 33-2.8 4.2-6.8 3.7-10.7 3.1-.7-.2-1.7-1.7-1.8-2.6-.7-3.8-.9-7.5-1.5-13.2z"/><path class="st10" d="M463.5 33.6c2.6 12 5.7 23.8 7.9 35.8 1.8 10.5 2.8 21.4 3.9 32.1.2 1.1-.2 2-.4 3.1-12.9-1.8-13.5-12.7-15.5-22-2.8-13.1-3.7-26.6-.4-39.7 1.1-3.2 3-6.2 4.5-9.3z"/><path class="st12" d="M809.1 874.1c17.3 4.6 27.3 29.3 17.2 44.7-2-10.1-5.5-19-13.7-25.1-5.2-3.9-10.9-7-16.2-10.3 4.2-3.2 8.4-6.2 12.7-9.3z"/><path class="st13" d="M576 100.2c-3.9 1.8-7.8 3.7-11.8 5.4-21.6 9.4-36.2 25.5-43.9 47.8-.6 1.7-1.7 3-2.6 4.4-1.5-3.5-3-7-4.2-10.5-.4-1.1-.2-2.8.4-3.7 13.5-23.8 33.4-38.6 60.5-43.4.5-.2 1.1 0 1.6 0z"/><path class="st11" d="M521.4 107.4c11.1-15.1 18.8-34.3 42.3-33.6-.6 8.5-34.9 35.6-42.3 33.6z"/><path class="st12" d="M186.1 890.9c3.9-4.6 7.9-9.2 11.8-13.7 1.1-1.1 2.4-2 3.5-3.1 5 3.3 10 6.6 15.1 10-12 4.2-20.9 11.8-26.8 23.1-6-4.5-4.1-10.4-3.6-16.3z"/><path class="st10" d="M496.1 120.9h25.8c-4.4 5.9-8.5 11.6-12.7 17.3-4.2-5.7-8.3-11.2-13.1-17.3z"/><path class="st8" d="M645 263.3c-2.4-.7-4.6-1.7-7-2.4 14.6-10 25.6-23.1 33.6-38.6-.6 10-6.3 17.5-12 24.9-4.2 5.6-9.8 10.8-14.6 16.1zM631.4 258.2c-3.3-.9-6.6-2-10-3 8.7-4.4 17.3-8.7 26-13.5 3.3-1.8 6.3-4.6 9.4-6.8-6.2 10.1-15.8 16.8-25.4 23.3z"/><path class="st13" d="M530.8 225.7c-5.4-2.2-10.7-4.4-16.1-6.6 1.8-5.5 3.5-11.1 5.4-16.6 3.5 7.9 7.2 15.6 10.7 23.2z"/><path class="st7" d="M392.6 931.1l.9-.9c13.8 1.7 27.7 3.5 41.3 5 6.3.7 12.5.9 18.6 2.4-9.2-.7-18.6-1.3-27.9-2.2-10.5-1.1-21-2.4-31.4-3.5-.4-.2-.9-.6-1.5-.8zM586.7 934.6l.9.9c-5.7.6-11.4 1.3-17.3 1.7-5 .4-10.1 0-15.3-.2 10.5-.7 21.2-1.6 31.7-2.4z"/><path class="st13" d="M583.2 99.3c-2.4.4-4.6.6-7 .9 2.2-.2 4.6-.6 7-.9z"/><path class="st8" d="M656.9 234.9c.4-.6.9-1.3 1.3-1.8-.4.5-1 1.2-1.3 1.8z"/><path class="st10" d="M165.1 371.1c.2-.2.4-.2.6-.4-.2.2-.2.4-.4.6l-.2-.2z"/><path class="st14" d="M194.4 912.3c5.2 3.1 10.1 6.5 15.5 9.4 1.8 1.1 4.4.9 6.8 1.3-1.3 9-2.8 18.1-4.1 27.1-12.6-2.5-23.2-23.6-18.2-37.8zM186.1 890.9c-.7 5.9-2.4 11.8 3.7 16.2-.9 3.7-2 7.2-3 10.9-5.3-6.2-5.7-19.7-.7-27.1zM799.7 938.9c3-1.3 5.7-2.8 8.7-3.9 3.1-1.1 6.3-2 9.4-3.1-3.1 9-8.9 15.7-18.6 19.4.1-4.7.3-8.5.5-12.4z"/><path class="st15" d="M359.9 305.6c4.1 3.9 8.1 7.8 12 11.8.4.4.9.6 1.3.9 0 .7-.2 1.5.2 2 5.5 10.5 11.1 21 16.6 31.6 1.1 2 2 4.2 3.3 6.3 14.9 22.3 34.1 40.8 53.3 59 4.4 4.1 10.5 6.3 15.9 9.4 1.3.7 2.4 1.7 3.7 2.4 8.3 5.9 17.9 7.6 27.7 7.2 18.8-.6 35.8-7.2 51.5-16.8 4.4-2.6 7.8-7 11.4-10.7l4.4-4.4c3.1-2.2 6.1-5 9.6-6.3 2.8-.9 6.8-.9 8.9.6 1.8 1.3 2.4 5.5 1.8 8.1-.7 4.4-2.6 8.7-4.1 13.3 5 1.7 9 3.9 6.3 10-5.5-.7-10.7-1.5-16.8-2.4 2.4-6.6 5-14.2 8.1-23.3-3.5 2.8-6.1 4.4-8.1 6.5-15.7 16.6-35.6 25.6-57.4 30.4-26 5.7-49.3-1.7-68.6-19.6-14.2-13.3-28-27.1-40-42.4-11.6-15.1-20.9-32.1-30.4-48.5-4.8-8.1-10.1-15.3-17.3-21.4-11.6-9.8-21-21.4-26-36.2-.7-2.2-1.8-4.2-2.8-6.5-.4-.9-.9-2-1.3-3.1-7.9 5-13.1 10.9-16.6 18.8-.2.4-.4.7-.7 1.1-.4.6-.6 1.1-.9 1.7-.6.9-1.1 1.7-1.8 2.6-.2-2.6-.9-5.4-.6-7.8 2-10.7 8.3-18.6 17.7-23.6 7.4-3.9 15.7-6.5 23.6-9.6 1.3 0 2.6.2 4.1.2-.7 5-2.2 8.9-8.3 9-2.2 0-4.6 1.1-6.6 2.2-.9.4-1.8 2-1.7 3 3.7 17.7 13.5 31.7 27.3 43 0 0 .2-.2.4-.2.2.6.6 1.1.9 1.7z"/><path d="M466.2 428.8c-1.3-.7-2.4-1.7-3.7-2.4 1.5-3.9 2.4-7.9 4.6-11.3 8.5-12.7 20.7-18.5 36.2-17.2 8.5 3.3 16.6 4.8 24.5-1.8 2.8-2.2 6.6-3 10-4.2 2.8 0 5.4 0 8.1-.2 6.6 2.2 12 6.3 15.3 12.5l-4.4 4.4c-2.6-2.8-5-5.4-7.6-8.1-1.5-.9-2.8-2.2-4.2-2.6-7.8-2-14.6.9-20.5 5.5-.9.7-1.3 3.3-.7 4.6 1.1 3.5 2.6 6.8 4.1 10.3-.6.2-.9.4-1.5.6-1.1-1.3-2-2.4-3.1-3.7-11.6-14.6-34.9-16.4-47.6-3-4.5 4.5-6.3 10.9-9.5 16.6z" fill="#852026"/><path class="st15" d="M660.4 277.7c-.9-2.4-1.8-4.8-2.8-7.4 7-10.5 14-21 21.8-32.5.2 17.2-8 29.2-19 39.9z"/><path class="st1" d="M546 391.6c-2.8 0-5.4 0-8.1.2-.6-6.5-1.3-13.1-1.8-19.6 2.4-1.3 4.8-2.4 7.2-3.7.8 7.6 1.7 15.3 2.7 23.1z"/><path class="st8" d="M306.6 282.5c3.5-7.9 8.7-13.8 16.6-18.8.6 1.1.9 2 1.3 3.1-4.6 4.4-9.2 8.9-13.8 13.1-1.1 1.1-2.6 1.7-4.1 2.6zM305 285.5c.4-.6.6-1.1.9-1.7-.2.4-.6.9-.9 1.7zM306.1 283.6c.2-.4.4-.7.7-1.1-.4.4-.6.7-.7 1.1z"/><path class="st9" d="M359 304.1c-.2 0-.4.2-.4.2-13.8-11.3-23.6-25.3-27.3-43-.2-.9.7-2.4 1.7-3 2-.9 4.4-2 6.6-2.2 6.1-.2 7.4-4.1 8.3-9-1.5 0-2.8-.2-4.1-.2.7-.9 1.5-1.8 2.4-2.6 5.7-5.7 5.7-5.4 10.5.9 5.2 6.5 10.9 12.5 16.4 18.6-11.8 5.9-18.8 22-15.3 34.9.7 1.9.9 3.6 1.2 5.4z"/><path class="st17" d="M588.6 186.9c0 12.7-10.7 23.3-23.6 23.1-12.5-.2-23.1-10.9-22.9-23.4 0-13.1 10.7-23.6 23.8-23.3 12.7 0 22.7 10.3 22.7 23.6zm-22.2-12.2c-3.9-5.5-8.5-7-12.7-3.9s-4.2 8.1.2 13.3c0 8.1 4.2 13.5 10.9 14 5.7.4 11.4-4.2 12.4-9.8.9-6.7-3.4-12.1-10.8-13.6zM420.8 188.4c0-12.9 10.3-23.6 23.1-23.6 13.1-.2 23.8 10.5 23.6 23.4 0 12.5-10.7 23.3-23.1 23.3-12.7.3-23.4-10.4-23.6-23.1zm11.9-3c0 8.5 4.1 13.8 11.1 14.4 5.9.4 11.8-4.4 12.5-10.7.7-6.1-3.9-11.4-10.9-12.7-3.3-5.7-8.3-7.4-12.5-4.4-4.3 3.1-4.3 8.3-.2 13.4z"/><path d="M500.7 234.9c2.4-.9 4.8-1.8 7-2.6 8.1 3.1 15.9 7 24.2 9.6 36.7 11.6 73.6 22.9 110.3 34.1 1.3.4 2.6.4 3.9.6 9.4 7.9 9.2 23.1-.9 29.7-4.2 2.8-9 5.4-13.8 6.6-17 4.2-32.7 11.8-48 19.9-12.5 6.6-24.5 13.8-36.9 20.7-13.1 7.4-26.8 13.5-42.3 11.4-14-1.8-26-8.7-38-16.2-8.7-5.5-17.9-10.3-26.9-14.9-10.1-5.2-20.3-10.1-30.4-15.1-5-5-10-10-14.8-14.9-11.3-11.6-8.9-24 5.7-30.8.6-.2 1.1-.6 1.7-.7 22.3-8.7 44.7-17.3 67.2-25.8 9.8-3.7 19.9-7.2 29.7-10.7.5-.3 1.4-.7 2.3-.9zm65.6 31.7c-6.3 0-10.3 3.7-9 8.3 3 11.3 18.8 22.1 30.3 20.9 5.4-.6 8.1-5.2 6.1-10.1-3.6-9.1-17.7-18.9-27.4-19.1z" fill="#ffc641"/><path d="M503.3 397.8c-15.3-1.3-27.5 4.4-36.2 17.2-2.2 3.3-3.1 7.6-4.6 11.3-5.4-3.1-11.4-5.2-15.9-9.4-19.4-18.3-38.6-36.7-53.3-59-1.3-2-2.2-4.1-3.3-6.3 2.8-1.1 5.5-2.8 8.5-3.5 10.5-2.6 20.9-4.8 31.4-7.2 12.5 6.8 24.9 13.7 37.6 20.3 9.2 4.8 18.6 9 28 13.5 2.7 7.8 5.2 15.6 7.8 23.1z" fill="#90335f"/><path class="st20" d="M498.2 235.6c-10 3.5-19.9 7-29.7 10.7-22.3 8.5-44.8 17.2-67.2 25.8-.6.2-1.1.6-1.7.7-14.6 6.8-16.8 19-5.7 30.8 4.8 5 10 10 14.8 14.9-9.6-3.1-19.4-5.9-28.8-9.8-7.2-3-13.1-7.6-12.2-17 .9-9.2 4.2-16.8 13.8-20.1 10.3-3.3 20.7-6.6 31-10.1 19.4-6.5 38.6-13.3 58.1-19.6 9.1-2.4 18.3-4 27.6-6.3z"/><path class="st3" d="M503.3 397.8c-2.6-7.8-5.2-15.3-7.8-23.1 13.8 3 27.3 1.3 40.6-3 .6 6.5 1.3 13.1 1.8 19.6-3.3 1.5-7.4 2-10 4.2-8 7.1-16.1 5.7-24.6 2.3zM429.9 341.2c-10.5 2.4-21 4.6-31.4 7.2-3 .7-5.7 2.4-8.5 3.5-5.5-10.5-11.1-21-16.6-31.6-.4-.6-.2-1.3-.2-2 18.9 7.6 37.9 15.1 56.7 22.9z"/><path class="st21" d="M646.2 276.4c-1.3-.2-2.6-.2-3.9-.6-36.7-11.3-73.6-22.5-110.3-34.1-8.3-2.6-16.1-6.3-24.2-9.6 2.2 0 4.4-.2 6.5.2 18.8 5.2 38 10 56.7 15.9 22.5 7.2 44.5 15.1 66.8 23.1 2.8 1.1 5.6 3.5 8.4 5.1z"/><path class="st20" d="M500.7 234.9c-.9.2-1.8.6-2.8.7 1-.1 1.9-.5 2.8-.7z"/><path class="st9" d="M359.9 305.6c-.4-.6-.6-1.1-.9-1.7.2.6.6 1.1.9 1.7z"/><path class="st3" d="M373.2 318.1c-.4-.4-.9-.6-1.3-.9.4.4 1 .7 1.3.9z"/><path class="st4" d="M466.2 428.8c3-5.5 5-12.2 9.2-16.6 12.9-13.5 36.2-11.6 47.6 3 .9 1.3 2 2.4 3.1 3.7.6-.2.9-.4 1.5-.6-1.3-3.3-3-6.8-4.1-10.3-.4-1.5-.2-3.9.7-4.6 6.1-4.6 12.7-7.6 20.5-5.5 1.5.4 3 1.7 4.2 2.6-1.8-.6-3.9-1.7-5.7-1.7-.9 0-1.8 2-2.6 3.1 2.2 1.3 4.4 2.4 6.6 3.7.6-1.7 1.3-3.3 1.8-5 2.6 2.8 5 5.4 7.6 8.1-3.9 3.7-7.2 7.9-11.4 10.7-15.9 9.6-32.8 16.2-51.5 16.8-9.6.2-19.2-1.5-27.5-7.4z"/><path class="st6" d="M566.4 174.7c7.4 1.5 11.6 6.8 10.5 13.7-.7 5.5-6.6 10.1-12.4 9.8-6.6-.6-10.9-5.9-10.9-14 9 2.4 12.8-.6 12.8-9.5z"/><path class="st9" d="M566.4 174.7c0 8.9-3.9 11.8-12.5 9.4-4.2-5.2-4.4-10.1-.2-13.3 4.2-3.1 8.9-1.8 12.7 3.9z"/><path class="st6" d="M445.4 176.6c6.8 1.3 11.4 6.6 10.9 12.7-.7 6.1-6.5 11.1-12.5 10.7-6.8-.6-11.1-5.9-11.1-14.4 8.6 2.4 12.7-.5 12.7-9z"/><path class="st9" d="M445.4 176.6c0 8.5-4.1 11.4-12.7 9-4.1-5.2-4.1-10.3.2-13.3 4.2-3.1 9.2-1.4 12.5 4.3z"/><path class="st21" d="M566.3 266.6c9.8.2 23.8 10 27.3 19 1.8 5-.7 9.4-6.1 10.1-11.4 1.3-27.3-9.6-30.3-20.9-1.3-4.5 2.8-8.2 9.1-8.2z"/><path class="st9" d="M549.5 400.4c-.6 1.7-1.3 3.3-1.8 5-2.2-1.3-4.4-2.4-6.6-3.7.9-1.1 1.8-3.1 2.6-3.1 1.9.3 3.9 1.3 5.8 1.8z"/></svg>