<svg id="Layer_1" data-name="Layer 1" xmlns="http://www.w3.org/2000/svg" viewBox="0 0 298.59 643.58"><defs><style>.tg-1{fill:#212529;}.tg-2{fill:#e2a38d;}.tg-3{fill:#495057;}.tg-4{fill:#c4a3bf;}.tg-5{fill:#3c3c3c;}.tg-6{fill:#ccc;}.tg-7{fill:#616161;}.tg-8{fill:#a56e68;}</style></defs><title>TourGuide</title><path class="tg-1" d="M228.55,8.44c4.63,6.45,17.72,23.75,9.72,62.63s-65.92,85.17-71,76.63,1.59-53.91,7.24-64.54,3.46-14.29-1.64-41.48S188.25,4.49,188.25,4.49C206.29-4.67,224,2,228.55,8.44Z" transform="translate(-0.03 0)"/><path class="tg-1" d="M199.76,611.71c1.24-1.6,4.46-19.07-6.59-28.15s-13.27,0-13.27,0a50.71,50.71,0,0,1-6,10c-2.86,3.73-11.76,19-15.68,20.13s-16,3.23-17.1,10-1.61,11.59,10.33,12.12,19.78,1.24,25.48-7.13,14.78-14.43,14.78-14.43V636.1h4.63S198.52,613.31,199.76,611.71Z" transform="translate(-0.03 0)"/><path class="tg-2" d="M195.26,585.59s-4.47-9.07-15.78-2.48c0,0-18.65,26.19-21.65,30.11,0,0,10.69,2.67,14.79,0S190.62,587,195.26,585.59Z" transform="translate(-0.03 0)"/><path class="tg-2" d="M54.11,223.2a46.36,46.36,0,0,1-5.37.8c-1.34,0-8.35,6.28-15.69,7.66s-9.66-16.39-7.76-18.08,12.67-2.47,11-4.2-10.95-8.19-9.74-10.73,6.38,2.66,8.38,3.6c1.52.7,6.44,2.94,8.59,5.94,2.59,3.49,10,2.07,10,2.07Z" transform="translate(-0.03 0)"/><path class="tg-2" d="M32.81,231.71s-10.52,4.57-14.72,6.95-4.61.34-4.61-.53c0-1.43,16.58-10.14,16.58-10.14S7.77,236.5,6,237.16a1.77,1.77,0,0,1-2.21-2.44C4.52,233.48,28,223,28,223s-25.54,9.65-26.66,9.8-1.72-2.19-1-2.85c1.24-1.12,26.34-12.31,26.34-12.31S7.1,222.1,5,222.55s-2.48-.73-1.32-2.35S27,212.85,27,212.85Z" transform="translate(-0.03 0)"/><path class="tg-1" d="M256.49,618.78c.14-2.85,2-13.85-4-18.66s-13.67-2.81-13.67-2.81-11.94,17.73-16.75,22c0,0-10.68,3.93-11.75,11.41s-.9,12.48,11.75,12.83,20.9-1.92,23.26-9.55a35,35,0,0,1,7.38-12.87v16h2.85S256.35,621.63,256.49,618.78Z" transform="translate(-0.03 0)"/><path class="tg-1" d="M200.76,313.7c0,16.73,33.37,115,33.92,118.73s3.21,36.85,4.55,45.94,0,118.9,0,118.9l23.1,4.59s8.43-107.74,10.57-129.38-8.55-50.23-8.73-61.72,6.33-89.53,2.24-112.76-19.16-42.83-19.16-42.83C210.91,227.83,200.76,297,200.76,313.7Z" transform="translate(-0.03 0)"/><path class="tg-1" d="M217.3,332.22S177,418.55,174.3,426s10.94,32.6,11.39,50.24S202.82,584.1,202.82,584.1H172.88L141.41,433.72s-4.79-20.71-4.79-33.61c0-5.56,4.28-16.36,7.22-29.45s27.7-107.59,27.7-107.59C247.87,235.64,217.3,332.22,217.3,332.22Z" transform="translate(-0.03 0)"/><path class="tg-2" d="M242.62,617.33c6.6-7.4,10.28-17.25,10.28-17.25l-13.67-2.81-16.74,22S234.71,626.11,242.62,617.33Z" transform="translate(-0.03 0)"/><path class="tg-3" d="M176.09,151.09s-38.67,49.62-55.47,53.76C106.85,208.24,52,226.19,52,226.19l-5.79-18.34s29.17-10.61,43.73-15.51c9.43-3.17,23.68-7.94,25.14-8.85s29.8-41.76,31.8-46.17,9.28-17.59,17-25.85a31,31,0,0,1,17.92-9.23C204.91,117.3,176.09,151.09,176.09,151.09Z" transform="translate(-0.03 0)"/><path class="tg-4" d="M225.73,96.9c4.22,1.47,27.74,3.86,36.38,10.57,9.93,7.71,8.26,46.64,8.26,46.64s-22.77,38.39-24.79,43.53-2.37,25.77.63,28.87C259.89,240.82,271.46,291,271.46,291c-17,15.06-103.55,2.54-103-5.73S170,221.34,167,206.46s3.13-19.83-3.3-34.71-9.55-27.55-6.43-36,20.94-31.59,25.53-32.51,17.81-7.16,17.81-7.16C209.21,94.79,221.51,95.43,225.73,96.9Z" transform="translate(-0.03 0)"/><path class="tg-2" d="M223.1,66.85c-4.95,16.75,1.62,29.06,1.62,29.06C209.1,125.75,195.36,112,195.36,112c.25-3.63-.17-10.7-.7-17.3-.17-2.2-.36-4.3-.54-6.3-.46-4.92-.85-8.56-.85-8.56S228.05,50.1,223.1,66.85Z" transform="translate(-0.03 0)"/><path class="tg-1" d="M161.33,168.69C155,152.36,155,140.85,155,140.85c-3.52,13.38-.21,35.38-.21,35.38Z" transform="translate(-0.03 0)"/><path class="tg-2" d="M224.6,95.61s-26.87.41-28.69.7-8.29,4-8.29,4S174,121.82,199.88,123.87,235.28,98,235.28,98Z" transform="translate(-0.03 0)"/><path class="tg-3" d="M180.22,102.5c-14.6,12.24-23.64,26.58-25.16,36.24-1.21,7.67,6.56,35.3,8.38,41.5s5.22,80.31,3.29,87.33-27.38,104.31-27.38,104.31L150,377.36s13.52-61,18.26-80.68,5.84-82.13,5.84-120.45,13.59-75.92,13.59-75.92Z" transform="translate(-0.03 0)"/><path class="tg-3" d="M255.1,102.17s20.54,21.38,6.26,64.55-10.11,61.49,3.15,82.17,23,134.35,23,134.35l-45.26,7.3c-11.68-36.54-29.11-197.35-24.82-232a392,392,0,0,1,12.72-61.69C234.12,97.3,255.1,102.17,255.1,102.17Z" transform="translate(-0.03 0)"/><polygon class="tg-5" points="244.69 174.96 297.19 271.4 236.17 306.62 181.29 211.56 244.69 174.96"/><polygon class="tg-6" points="244.21 182.32 290.84 267.97 236.65 299.26 187.91 214.83 244.21 182.32"/><polygon class="tg-7" points="228.65 194.1 224.37 188.67 202.47 201.32 205.89 207.25 228.65 194.1"/><path class="tg-2" d="M205.77,270.79a6.67,6.67,0,0,1-3.17-4.89c-1.81-1.72-2.28-5.39-2.28-5.39a4.41,4.41,0,0,1-2.16-3.74c-.12-1.36,3.14-4.54,3.48-4.84,1-.8,1.87-2.6,3.82-3.9a6.82,6.82,0,0,1,.68-.41c2.48-1.31,20.48-2.48,20.48-2.48l3,6.32,4.06,6.18s-8.57,9.95-11,11.63a21,21,0,0,1-6.12,2.59,9.19,9.19,0,0,0-1.11.5c-1.41.7-3.33,1.82-3.33,1.82a11.47,11.47,0,0,1-3.59.51C206.53,274.2,205.77,270.79,205.77,270.79Z" transform="translate(-0.03 0)"/><path class="tg-3" d="M253.07,160.41c2.21,4.69,11.7,36.68,14.86,46.16,2.69,8.07-10.41,15.08-16.63,21.62-3.82,4-27.16,17-27.16,17s10.37,24.46,10,22.26,57.35-31.69,63-41.64S290.47,187.41,290,185s-6-25.53-7.2-34c-1.27-9-1.23-16.81-10.78-35.17s-26.21-13.59-26.21-13.59C231.68,108.21,250.86,155.72,253.07,160.41Z" transform="translate(-0.03 0)"/><path class="tg-2" d="M230.05,30.9c4.23,31.2-36.35,88.27-52.43,37.1s13.6-60.5,13.6-60.5S225.82-.3,230.05,30.9Z" transform="translate(-0.03 0)"/><path class="tg-1" d="M219.25,9.14c27,22.48,5,60,5,60C223.52,64.78,214,53.66,214,53.66c-24.68-1.81-39.42-16.28-39.42-16.28C164.62,28.11,192.25-13.34,219.25,9.14Z" transform="translate(-0.03 0)"/><path class="tg-2" d="M217.74,63.43c3.66,1.06,9.51-16.22,4-18.59s-7.81,6.11-8,9.84C213.29,63.49,217.75,63.43,217.74,63.43Z" transform="translate(-0.03 0)"/><path class="tg-8" d="M216.51,74.42c-8.75,19.48-21.85,20.26-21.85,20.26-.17-2.2-.36-4.3-.54-6.3C206.35,89.36,216,75.27,216.51,74.42Z" transform="translate(-0.03 0)"/></svg>